<?xml version="1.0" encoding="UTF-8" standalone="no"?>
<!DOCTYPE svg PUBLIC "-//W3C//DTD SVG 1.1//EN"
 "http://www.w3.org/Graphics/SVG/1.1/DTD/svg11.dtd">
<!-- Generated by graphviz version 2.40.1 (20161225.0304)
 -->
<!-- Title: dependencies Pages: 1 -->
<svg width="805pt" height="211pt"
 viewBox="0.00 0.00 805.00 211.00" xmlns="http://www.w3.org/2000/svg" xmlns:xlink="http://www.w3.org/1999/xlink">
<g id="graph0" class="graph" transform="scale(1 1) rotate(0) translate(4 207)">
<title>dependencies</title>
<polygon fill="#ffffff" stroke="transparent" points="-4,4 -4,-207 801,-207 801,4 -4,4"/>
<text text-anchor="start" x="377.5091" y="-42.4" font-family="sans-serif" font-weight="bold" font-size="14.00" fill="#000000">Legend</text>
<polygon fill="#ffffb3" stroke="transparent" points="164.5,-10 164.5,-30 184.5,-30 184.5,-10 164.5,-10"/>
<text text-anchor="start" x="188.129" y="-15.4" font-family="sans-serif" font-size="14.00" fill="#000000"> &#160;Declarations</text>
<polygon fill="#8dd3c7" stroke="transparent" points="277.5,-10 277.5,-30 297.5,-30 297.5,-10 277.5,-10"/>
<text text-anchor="start" x="301.2251" y="-15.4" font-family="sans-serif" font-size="14.00" fill="#000000"> &#160;Module</text>
<polygon fill="#80b1d3" stroke="transparent" points="363.5,-10 363.5,-30 383.5,-30 383.5,-10 363.5,-10"/>
<text text-anchor="start" x="387.2812" y="-15.4" font-family="sans-serif" font-size="14.00" fill="#000000"> &#160;Bootstrap</text>
<polygon fill="#fdb462" stroke="transparent" points="460.5,-10 460.5,-30 480.5,-30 480.5,-10 460.5,-10"/>
<text text-anchor="start" x="484.1732" y="-15.4" font-family="sans-serif" font-size="14.00" fill="#000000"> &#160;Providers</text>
<polygon fill="#fb8072" stroke="transparent" points="556.5,-10 556.5,-30 576.5,-30 576.5,-10 556.5,-10"/>
<text text-anchor="start" x="580.2258" y="-15.4" font-family="sans-serif" font-size="14.00" fill="#000000"> &#160;Exports</text>
<g id="clust1" class="cluster">
<title>cluster_AuthModule</title>
<polygon fill="none" stroke="#000000" stroke-dasharray="1,5" points="8,-70 8,-195 789,-195 789,-70 8,-70"/>
</g>
<g id="clust2" class="cluster">
<title>cluster_AuthModule_declarations</title>
<polygon fill="none" stroke="#000000" points="381,-78 381,-130 781,-130 781,-78 381,-78"/>
</g>
<g id="clust6" class="cluster">
<title>cluster_AuthModule_imports</title>
<polygon fill="none" stroke="#000000" points="16,-78 16,-130 373,-130 373,-78 16,-78"/>
</g>
<!-- AuthComponent -->
<g id="node1" class="node">
<title>AuthComponent</title>
<polygon fill="#ffffb3" stroke="#000000" points="772.8301,-122 663.1699,-122 663.1699,-86 772.8301,-86 772.8301,-122"/>
<text text-anchor="middle" x="718" y="-99.8" font-family="Times,serif" font-size="14.00" fill="#000000">AuthComponent</text>
</g>
<!-- AuthModule -->
<g id="node4" class="node">
<title>AuthModule</title>
<polygon fill="#8dd3c7" stroke="#000000" points="418.5482,-187 415.5482,-191 394.5482,-191 391.5482,-187 331.4518,-187 331.4518,-151 418.5482,-151 418.5482,-187"/>
<text text-anchor="middle" x="375" y="-164.8" font-family="Times,serif" font-size="14.00" fill="#000000">AuthModule</text>
</g>
<!-- AuthComponent&#45;&gt;AuthModule -->
<g id="edge1" class="edge">
<title>AuthComponent&#45;&gt;AuthModule</title>
<path fill="none" stroke="#000000" d="M718,-122.2843C718,-143.3211 718,-175 718,-175 718,-175 428.7896,-175 428.7896,-175"/>
<polygon fill="#000000" stroke="#000000" points="428.7896,-171.5001 418.7896,-175 428.7895,-178.5001 428.7896,-171.5001"/>
</g>
<!-- LoginComponent -->
<g id="node2" class="node">
<title>LoginComponent</title>
<polygon fill="#ffffb3" stroke="#000000" points="645.2758,-122 530.7242,-122 530.7242,-86 645.2758,-86 645.2758,-122"/>
<text text-anchor="middle" x="588" y="-99.8" font-family="Times,serif" font-size="14.00" fill="#000000">LoginComponent</text>
</g>
<!-- LoginComponent&#45;&gt;AuthModule -->
<g id="edge2" class="edge">
<title>LoginComponent&#45;&gt;AuthModule</title>
<path fill="none" stroke="#000000" d="M588,-122.0225C588,-139.3734 588,-163 588,-163 588,-163 428.6177,-163 428.6177,-163"/>
<polygon fill="#000000" stroke="#000000" points="428.6177,-159.5001 418.6177,-163 428.6177,-166.5001 428.6177,-159.5001"/>
</g>
<!-- SignUpComponent -->
<g id="node3" class="node">
<title>SignUpComponent</title>
<polygon fill="#ffffb3" stroke="#000000" points="513.1123,-122 388.8877,-122 388.8877,-86 513.1123,-86 513.1123,-122"/>
<text text-anchor="middle" x="451" y="-99.8" font-family="Times,serif" font-size="14.00" fill="#000000">SignUpComponent</text>
</g>
<!-- SignUpComponent&#45;&gt;AuthModule -->
<g id="edge3" class="edge">
<title>SignUpComponent&#45;&gt;AuthModule</title>
<path fill="none" stroke="#000000" d="M403.8587,-122.1061C403.8587,-122.1061 403.8587,-140.991 403.8587,-140.991"/>
<polygon fill="#000000" stroke="#000000" points="400.3588,-140.9909 403.8587,-150.991 407.3588,-140.991 400.3588,-140.9909"/>
</g>
<!-- AuthRoutingModule -->
<g id="node5" class="node">
<title>AuthRoutingModule</title>
<polygon fill="#8dd3c7" stroke="#000000" points="365.1652,-122 362.1652,-126 341.1652,-126 338.1652,-122 232.8348,-122 232.8348,-86 365.1652,-86 365.1652,-122"/>
<text text-anchor="middle" x="299" y="-99.8" font-family="Times,serif" font-size="14.00" fill="#000000">AuthRoutingModule</text>
</g>
<!-- AuthRoutingModule&#45;&gt;AuthModule -->
<g id="edge4" class="edge">
<title>AuthRoutingModule&#45;&gt;AuthModule</title>
<path fill="none" stroke="#000000" d="M348.2795,-122.1061C348.2795,-122.1061 348.2795,-140.991 348.2795,-140.991"/>
<polygon fill="#000000" stroke="#000000" points="344.7795,-140.9909 348.2795,-150.991 351.7795,-140.991 344.7795,-140.9909"/>
</g>
<!-- SharedModule -->
<g id="node6" class="node">
<title>SharedModule</title>
<polygon fill="#8dd3c7" stroke="#000000" points="214.4231,-122 211.4231,-126 190.4231,-126 187.4231,-122 115.5769,-122 115.5769,-86 214.4231,-86 214.4231,-122"/>
<text text-anchor="middle" x="165" y="-99.8" font-family="Times,serif" font-size="14.00" fill="#000000">SharedModule</text>
</g>
<!-- SharedModule&#45;&gt;AuthModule -->
<g id="edge5" class="edge">
<title>SharedModule&#45;&gt;AuthModule</title>
<path fill="none" stroke="#000000" d="M165,-122.0225C165,-139.3734 165,-163 165,-163 165,-163 321.2327,-163 321.2327,-163"/>
<polygon fill="#000000" stroke="#000000" points="321.2328,-166.5001 331.2327,-163 321.2327,-159.5001 321.2328,-166.5001"/>
</g>
<!-- UiModule -->
<g id="node7" class="node">
<title>UiModule</title>
<polygon fill="#8dd3c7" stroke="#000000" points="97.5484,-122 94.5484,-126 73.5484,-126 70.5484,-122 24.4516,-122 24.4516,-86 97.5484,-86 97.5484,-122"/>
<text text-anchor="middle" x="61" y="-99.8" font-family="Times,serif" font-size="14.00" fill="#000000">UiModule</text>
</g>
<!-- UiModule&#45;&gt;AuthModule -->
<g id="edge6" class="edge">
<title>UiModule&#45;&gt;AuthModule</title>
<path fill="none" stroke="#000000" d="M61,-122.2843C61,-143.3211 61,-175 61,-175 61,-175 321.3396,-175 321.3396,-175"/>
<polygon fill="#000000" stroke="#000000" points="321.3397,-178.5001 331.3396,-175 321.3396,-171.5001 321.3397,-178.5001"/>
</g>
</g>
</svg>
