<?xml version="1.0" encoding="UTF-8" standalone="no"?>
<!DOCTYPE svg PUBLIC "-//W3C//DTD SVG 1.1//EN"
 "http://www.w3.org/Graphics/SVG/1.1/DTD/svg11.dtd">
<!-- Generated by graphviz version 2.40.1 (20161225.0304)
 -->
<!-- Title: dependencies Pages: 1 -->
<svg width="713pt" height="211pt"
 viewBox="0.00 0.00 713.00 211.00" xmlns="http://www.w3.org/2000/svg" xmlns:xlink="http://www.w3.org/1999/xlink">
<g id="graph0" class="graph" transform="scale(1 1) rotate(0) translate(4 207)">
<title>dependencies</title>
<polygon fill="#ffffff" stroke="transparent" points="-4,4 -4,-207 709,-207 709,4 -4,4"/>
<text text-anchor="start" x="331.5091" y="-42.4" font-family="sans-serif" font-weight="bold" font-size="14.00" fill="#000000">Legend</text>
<polygon fill="#ffffb3" stroke="transparent" points="118.5,-10 118.5,-30 138.5,-30 138.5,-10 118.5,-10"/>
<text text-anchor="start" x="142.129" y="-15.4" font-family="sans-serif" font-size="14.00" fill="#000000"> &#160;Declarations</text>
<polygon fill="#8dd3c7" stroke="transparent" points="231.5,-10 231.5,-30 251.5,-30 251.5,-10 231.5,-10"/>
<text text-anchor="start" x="255.2251" y="-15.4" font-family="sans-serif" font-size="14.00" fill="#000000"> &#160;Module</text>
<polygon fill="#80b1d3" stroke="transparent" points="317.5,-10 317.5,-30 337.5,-30 337.5,-10 317.5,-10"/>
<text text-anchor="start" x="341.2812" y="-15.4" font-family="sans-serif" font-size="14.00" fill="#000000"> &#160;Bootstrap</text>
<polygon fill="#fdb462" stroke="transparent" points="414.5,-10 414.5,-30 434.5,-30 434.5,-10 414.5,-10"/>
<text text-anchor="start" x="438.1732" y="-15.4" font-family="sans-serif" font-size="14.00" fill="#000000"> &#160;Providers</text>
<polygon fill="#fb8072" stroke="transparent" points="510.5,-10 510.5,-30 530.5,-30 530.5,-10 510.5,-10"/>
<text text-anchor="start" x="534.2258" y="-15.4" font-family="sans-serif" font-size="14.00" fill="#000000"> &#160;Exports</text>
<g id="clust1" class="cluster">
<title>cluster_AuthModule</title>
<polygon fill="none" stroke="#000000" stroke-dasharray="1,5" points="8,-70 8,-195 697,-195 697,-70 8,-70"/>
</g>
<g id="clust2" class="cluster">
<title>cluster_AuthModule_declarations</title>
<polygon fill="none" stroke="#000000" points="289,-78 289,-130 689,-130 689,-78 289,-78"/>
</g>
<g id="clust6" class="cluster">
<title>cluster_AuthModule_imports</title>
<polygon fill="none" stroke="#000000" points="16,-78 16,-130 281,-130 281,-78 16,-78"/>
</g>
<!-- AuthComponent -->
<g id="node1" class="node">
<title>AuthComponent</title>
<polygon fill="#ffffb3" stroke="#000000" points="680.8301,-122 571.1699,-122 571.1699,-86 680.8301,-86 680.8301,-122"/>
<text text-anchor="middle" x="626" y="-99.8" font-family="Times,serif" font-size="14.00" fill="#000000">AuthComponent</text>
</g>
<!-- AuthModule -->
<g id="node4" class="node">
<title>AuthModule</title>
<polygon fill="#8dd3c7" stroke="#000000" points="402.5482,-187 399.5482,-191 378.5482,-191 375.5482,-187 315.4518,-187 315.4518,-151 402.5482,-151 402.5482,-187"/>
<text text-anchor="middle" x="359" y="-164.8" font-family="Times,serif" font-size="14.00" fill="#000000">AuthModule</text>
</g>
<!-- AuthComponent&#45;&gt;AuthModule -->
<g id="edge1" class="edge">
<title>AuthComponent&#45;&gt;AuthModule</title>
<path fill="none" stroke="#000000" d="M626,-122.2843C626,-143.3211 626,-175 626,-175 626,-175 412.7906,-175 412.7906,-175"/>
<polygon fill="#000000" stroke="#000000" points="412.7907,-171.5001 402.7906,-175 412.7906,-178.5001 412.7907,-171.5001"/>
</g>
<!-- LoginComponent -->
<g id="node2" class="node">
<title>LoginComponent</title>
<polygon fill="#ffffb3" stroke="#000000" points="553.2758,-122 438.7242,-122 438.7242,-86 553.2758,-86 553.2758,-122"/>
<text text-anchor="middle" x="496" y="-99.8" font-family="Times,serif" font-size="14.00" fill="#000000">LoginComponent</text>
</g>
<!-- LoginComponent&#45;&gt;AuthModule -->
<g id="edge2" class="edge">
<title>LoginComponent&#45;&gt;AuthModule</title>
<path fill="none" stroke="#000000" d="M496,-122.0225C496,-139.3734 496,-163 496,-163 496,-163 412.7243,-163 412.7243,-163"/>
<polygon fill="#000000" stroke="#000000" points="412.7244,-159.5001 402.7243,-163 412.7243,-166.5001 412.7244,-159.5001"/>
</g>
<!-- SignUpComponent -->
<g id="node3" class="node">
<title>SignUpComponent</title>
<polygon fill="#ffffb3" stroke="#000000" points="421.1123,-122 296.8877,-122 296.8877,-86 421.1123,-86 421.1123,-122"/>
<text text-anchor="middle" x="359" y="-99.8" font-family="Times,serif" font-size="14.00" fill="#000000">SignUpComponent</text>
</g>
<!-- SignUpComponent&#45;&gt;AuthModule -->
<g id="edge3" class="edge">
<title>SignUpComponent&#45;&gt;AuthModule</title>
<path fill="none" stroke="#000000" d="M359,-122.1061C359,-122.1061 359,-140.991 359,-140.991"/>
<polygon fill="#000000" stroke="#000000" points="355.5001,-140.9909 359,-150.991 362.5001,-140.991 355.5001,-140.9909"/>
</g>
<!-- AuthRoutingModule -->
<g id="node5" class="node">
<title>AuthRoutingModule</title>
<polygon fill="#8dd3c7" stroke="#000000" points="273.1652,-122 270.1652,-126 249.1652,-126 246.1652,-122 140.8348,-122 140.8348,-86 273.1652,-86 273.1652,-122"/>
<text text-anchor="middle" x="207" y="-99.8" font-family="Times,serif" font-size="14.00" fill="#000000">AuthRoutingModule</text>
</g>
<!-- AuthRoutingModule&#45;&gt;AuthModule -->
<g id="edge4" class="edge">
<title>AuthRoutingModule&#45;&gt;AuthModule</title>
<path fill="none" stroke="#000000" d="M207,-122.0225C207,-139.3734 207,-163 207,-163 207,-163 305.4429,-163 305.4429,-163"/>
<polygon fill="#000000" stroke="#000000" points="305.4429,-166.5001 315.4429,-163 305.4429,-159.5001 305.4429,-166.5001"/>
</g>
<!-- SharedModule -->
<g id="node6" class="node">
<title>SharedModule</title>
<polygon fill="#8dd3c7" stroke="#000000" points="122.4231,-122 119.4231,-126 98.4231,-126 95.4231,-122 23.5769,-122 23.5769,-86 122.4231,-86 122.4231,-122"/>
<text text-anchor="middle" x="73" y="-99.8" font-family="Times,serif" font-size="14.00" fill="#000000">SharedModule</text>
</g>
<!-- SharedModule&#45;&gt;AuthModule -->
<g id="edge5" class="edge">
<title>SharedModule&#45;&gt;AuthModule</title>
<path fill="none" stroke="#000000" d="M73,-122.2843C73,-143.3211 73,-175 73,-175 73,-175 305.2514,-175 305.2514,-175"/>
<polygon fill="#000000" stroke="#000000" points="305.2515,-178.5001 315.2514,-175 305.2514,-171.5001 305.2515,-178.5001"/>
</g>
</g>
</svg>
