<?xml version="1.0" encoding="UTF-8" standalone="no"?>
<!DOCTYPE svg PUBLIC "-//W3C//DTD SVG 1.1//EN"
 "http://www.w3.org/Graphics/SVG/1.1/DTD/svg11.dtd">
<!-- Generated by graphviz version 2.40.1 (20161225.0304)
 -->
<!-- Title: dependencies Pages: 1 -->
<svg width="991pt" height="284pt"
 viewBox="0.00 0.00 991.00 284.00" xmlns="http://www.w3.org/2000/svg" xmlns:xlink="http://www.w3.org/1999/xlink">
<g id="graph0" class="graph" transform="scale(1 1) rotate(0) translate(4 280)">
<title>dependencies</title>
<polygon fill="#ffffff" stroke="transparent" points="-4,4 -4,-280 987,-280 987,4 -4,4"/>
<text text-anchor="start" x="470.5091" y="-42.4" font-family="sans-serif" font-weight="bold" font-size="14.00" fill="#000000">Legend</text>
<polygon fill="#ffffb3" stroke="transparent" points="257.5,-10 257.5,-30 277.5,-30 277.5,-10 257.5,-10"/>
<text text-anchor="start" x="281.129" y="-15.4" font-family="sans-serif" font-size="14.00" fill="#000000"> &#160;Declarations</text>
<polygon fill="#8dd3c7" stroke="transparent" points="370.5,-10 370.5,-30 390.5,-30 390.5,-10 370.5,-10"/>
<text text-anchor="start" x="394.2251" y="-15.4" font-family="sans-serif" font-size="14.00" fill="#000000"> &#160;Module</text>
<polygon fill="#80b1d3" stroke="transparent" points="456.5,-10 456.5,-30 476.5,-30 476.5,-10 456.5,-10"/>
<text text-anchor="start" x="480.2812" y="-15.4" font-family="sans-serif" font-size="14.00" fill="#000000"> &#160;Bootstrap</text>
<polygon fill="#fdb462" stroke="transparent" points="553.5,-10 553.5,-30 573.5,-30 573.5,-10 553.5,-10"/>
<text text-anchor="start" x="577.1732" y="-15.4" font-family="sans-serif" font-size="14.00" fill="#000000"> &#160;Providers</text>
<polygon fill="#fb8072" stroke="transparent" points="649.5,-10 649.5,-30 669.5,-30 669.5,-10 649.5,-10"/>
<text text-anchor="start" x="673.2258" y="-15.4" font-family="sans-serif" font-size="14.00" fill="#000000"> &#160;Exports</text>
<g id="clust1" class="cluster">
<title>cluster_UiModule</title>
<polygon fill="none" stroke="#000000" stroke-dasharray="1,5" points="8,-70 8,-268 975,-268 975,-70 8,-70"/>
</g>
<g id="clust2" class="cluster">
<title>cluster_UiModule_declarations</title>
<polygon fill="none" stroke="#000000" points="390,-78 390,-130 967,-130 967,-78 390,-78"/>
</g>
<g id="clust7" class="cluster">
<title>cluster_UiModule_exports</title>
<polygon fill="none" stroke="#000000" points="199,-208 199,-260 786,-260 786,-208 199,-208"/>
</g>
<g id="clust9" class="cluster">
<title>cluster_UiModule_providers</title>
<polygon fill="none" stroke="#000000" points="16,-78 16,-130 382,-130 382,-78 16,-78"/>
</g>
<!-- DropDownSettingsComponent -->
<g id="node1" class="node">
<title>DropDownSettingsComponent</title>
<polygon fill="#ffffb3" stroke="#000000" points="958.9269,-122 769.0731,-122 769.0731,-86 958.9269,-86 958.9269,-122"/>
<text text-anchor="middle" x="864" y="-99.8" font-family="Times,serif" font-size="14.00" fill="#000000">DropDownSettingsComponent</text>
</g>
<!-- UiModule -->
<g id="node4" class="node">
<title>UiModule</title>
<polygon fill="#8dd3c7" stroke="#000000" points="516.5484,-187 513.5484,-191 492.5484,-191 489.5484,-187 443.4516,-187 443.4516,-151 516.5484,-151 516.5484,-187"/>
<text text-anchor="middle" x="480" y="-164.8" font-family="Times,serif" font-size="14.00" fill="#000000">UiModule</text>
</g>
<!-- DropDownSettingsComponent&#45;&gt;UiModule -->
<g id="edge1" class="edge">
<title>DropDownSettingsComponent&#45;&gt;UiModule</title>
<path fill="none" stroke="#000000" d="M773.875,-122.1061C773.875,-141.3391 773.875,-169 773.875,-169 773.875,-169 526.6253,-169 526.6253,-169"/>
<polygon fill="#000000" stroke="#000000" points="526.6253,-165.5001 516.6253,-169 526.6252,-172.5001 526.6253,-165.5001"/>
</g>
<!-- SelectLanguageComponent -->
<g id="node2" class="node">
<title>SelectLanguageComponent</title>
<polygon fill="#ffffb3" stroke="#000000" points="751.2366,-122 580.7634,-122 580.7634,-86 751.2366,-86 751.2366,-122"/>
<text text-anchor="middle" x="666" y="-99.8" font-family="Times,serif" font-size="14.00" fill="#000000">SelectLanguageComponent</text>
</g>
<!-- SelectLanguageComponent&#45;&gt;UiModule -->
<g id="edge2" class="edge">
<title>SelectLanguageComponent&#45;&gt;UiModule</title>
<path fill="none" stroke="#000000" d="M696.0911,-122.027C696.0911,-138.3976 696.0911,-160 696.0911,-160 696.0911,-160 526.6569,-160 526.6569,-160"/>
<polygon fill="#000000" stroke="#000000" points="526.6569,-156.5001 516.6569,-160 526.6569,-163.5001 526.6569,-156.5001"/>
</g>
<!-- ThemeTogglerComponent -->
<g id="node3" class="node">
<title>ThemeTogglerComponent</title>
<polygon fill="#ffffb3" stroke="#000000" points="562.0239,-122 397.9761,-122 397.9761,-86 562.0239,-86 562.0239,-122"/>
<text text-anchor="middle" x="480" y="-99.8" font-family="Times,serif" font-size="14.00" fill="#000000">ThemeTogglerComponent</text>
</g>
<!-- ThemeTogglerComponent&#45;&gt;UiModule -->
<g id="edge3" class="edge">
<title>ThemeTogglerComponent&#45;&gt;UiModule</title>
<path fill="none" stroke="#000000" d="M480,-122.1061C480,-122.1061 480,-140.991 480,-140.991"/>
<polygon fill="#000000" stroke="#000000" points="476.5001,-140.9909 480,-150.991 483.5001,-140.991 476.5001,-140.9909"/>
</g>
<!-- DropDownSettingsComponent  -->
<g id="node5" class="node">
<title>DropDownSettingsComponent </title>
<polygon fill="#fb8072" stroke="#000000" points="778.4264,-252 585.5736,-252 585.5736,-216 778.4264,-216 778.4264,-252"/>
<text text-anchor="middle" x="682" y="-229.8" font-family="Times,serif" font-size="14.00" fill="#000000">DropDownSettingsComponent </text>
</g>
<!-- UiModule&#45;&gt;DropDownSettingsComponent  -->
<g id="edge4" class="edge">
<title>UiModule&#45;&gt;DropDownSettingsComponent </title>
<path fill="none" stroke="#000000" stroke-dasharray="5,2" d="M516.894,-178C564.3717,-178 640.8139,-178 640.8139,-178 640.8139,-178 640.8139,-205.973 640.8139,-205.973"/>
<polygon fill="#000000" stroke="#000000" points="637.314,-205.973 640.8139,-215.973 644.314,-205.973 637.314,-205.973"/>
</g>
<!-- SelectLanguageComponent  -->
<g id="node6" class="node">
<title>SelectLanguageComponent </title>
<polygon fill="#fb8072" stroke="#000000" points="567.2366,-252 392.7634,-252 392.7634,-216 567.2366,-216 567.2366,-252"/>
<text text-anchor="middle" x="480" y="-229.8" font-family="Times,serif" font-size="14.00" fill="#000000">SelectLanguageComponent </text>
</g>
<!-- UiModule&#45;&gt;SelectLanguageComponent  -->
<g id="edge5" class="edge">
<title>UiModule&#45;&gt;SelectLanguageComponent </title>
<path fill="none" stroke="#000000" stroke-dasharray="5,2" d="M480,-187.1061C480,-187.1061 480,-205.991 480,-205.991"/>
<polygon fill="#000000" stroke="#000000" points="476.5001,-205.9909 480,-215.991 483.5001,-205.991 476.5001,-205.9909"/>
</g>
<!-- ThemeTogglerComponent  -->
<g id="node7" class="node">
<title>ThemeTogglerComponent </title>
<polygon fill="#fb8072" stroke="#000000" points="375.0232,-252 206.9768,-252 206.9768,-216 375.0232,-216 375.0232,-252"/>
<text text-anchor="middle" x="291" y="-229.8" font-family="Times,serif" font-size="14.00" fill="#000000">ThemeTogglerComponent </text>
</g>
<!-- UiModule&#45;&gt;ThemeTogglerComponent  -->
<g id="edge6" class="edge">
<title>UiModule&#45;&gt;ThemeTogglerComponent </title>
<path fill="none" stroke="#000000" stroke-dasharray="5,2" d="M443.1914,-178C385.8841,-178 281.8367,-178 281.8367,-178 281.8367,-178 281.8367,-205.973 281.8367,-205.973"/>
<polygon fill="#000000" stroke="#000000" points="278.3368,-205.973 281.8367,-215.973 285.3368,-205.973 278.3368,-205.973"/>
</g>
<!-- UiLangService -->
<g id="node8" class="node">
<title>UiLangService</title>
<ellipse fill="#fdb462" stroke="#000000" cx="305" cy="-104" rx="69.48" ry="18"/>
<text text-anchor="middle" x="305" y="-99.8" font-family="Times,serif" font-size="14.00" fill="#000000">UiLangService</text>
</g>
<!-- UiLangService&#45;&gt;UiModule -->
<g id="edge7" class="edge">
<title>UiLangService&#45;&gt;UiModule</title>
<path fill="none" stroke="#000000" d="M328.1633,-121.1061C328.1633,-137.5747 328.1633,-160 328.1633,-160 328.1633,-160 433.2446,-160 433.2446,-160"/>
<polygon fill="#000000" stroke="#000000" points="433.2446,-163.5001 443.2446,-160 433.2445,-156.5001 433.2446,-163.5001"/>
</g>
<!-- UiStyleToggleService -->
<g id="node9" class="node">
<title>UiStyleToggleService</title>
<ellipse fill="#fdb462" stroke="#000000" cx="121" cy="-104" rx="96.7061" ry="18"/>
<text text-anchor="middle" x="121" y="-99.8" font-family="Times,serif" font-size="14.00" fill="#000000">UiStyleToggleService</text>
</g>
<!-- UiStyleToggleService&#45;&gt;UiModule -->
<g id="edge8" class="edge">
<title>UiStyleToggleService&#45;&gt;UiModule</title>
<path fill="none" stroke="#000000" d="M212.4207,-109.9985C212.4207,-126.0898 212.4207,-169 212.4207,-169 212.4207,-169 433.3553,-169 433.3553,-169"/>
<polygon fill="#000000" stroke="#000000" points="433.3553,-172.5001 443.3553,-169 433.3553,-165.5001 433.3553,-172.5001"/>
</g>
</g>
</svg>
