<?xml version="1.0" encoding="UTF-8" standalone="no"?>
<!DOCTYPE svg PUBLIC "-//W3C//DTD SVG 1.1//EN"
 "http://www.w3.org/Graphics/SVG/1.1/DTD/svg11.dtd">
<!-- Generated by graphviz version 2.40.1 (20161225.0304)
 -->
<!-- Title: dependencies Pages: 1 -->
<svg width="1274pt" height="211pt"
 viewBox="0.00 0.00 1274.00 211.00" xmlns="http://www.w3.org/2000/svg" xmlns:xlink="http://www.w3.org/1999/xlink">
<g id="graph0" class="graph" transform="scale(1 1) rotate(0) translate(4 207)">
<title>dependencies</title>
<polygon fill="#ffffff" stroke="transparent" points="-4,4 -4,-207 1270,-207 1270,4 -4,4"/>
<text text-anchor="start" x="612.0091" y="-42.4" font-family="sans-serif" font-weight="bold" font-size="14.00" fill="#000000">Legend</text>
<polygon fill="#ffffb3" stroke="transparent" points="399,-10 399,-30 419,-30 419,-10 399,-10"/>
<text text-anchor="start" x="422.629" y="-15.4" font-family="sans-serif" font-size="14.00" fill="#000000"> &#160;Declarations</text>
<polygon fill="#8dd3c7" stroke="transparent" points="512,-10 512,-30 532,-30 532,-10 512,-10"/>
<text text-anchor="start" x="535.7251" y="-15.4" font-family="sans-serif" font-size="14.00" fill="#000000"> &#160;Module</text>
<polygon fill="#80b1d3" stroke="transparent" points="598,-10 598,-30 618,-30 618,-10 598,-10"/>
<text text-anchor="start" x="621.7812" y="-15.4" font-family="sans-serif" font-size="14.00" fill="#000000"> &#160;Bootstrap</text>
<polygon fill="#fdb462" stroke="transparent" points="695,-10 695,-30 715,-30 715,-10 695,-10"/>
<text text-anchor="start" x="718.6732" y="-15.4" font-family="sans-serif" font-size="14.00" fill="#000000"> &#160;Providers</text>
<polygon fill="#fb8072" stroke="transparent" points="791,-10 791,-30 811,-30 811,-10 791,-10"/>
<text text-anchor="start" x="814.7258" y="-15.4" font-family="sans-serif" font-size="14.00" fill="#000000"> &#160;Exports</text>
<g id="clust1" class="cluster">
<title>cluster_ShoppingCartModule</title>
<polygon fill="none" stroke="#000000" stroke-dasharray="1,5" points="8,-70 8,-195 1258,-195 1258,-70 8,-70"/>
</g>
<g id="clust2" class="cluster">
<title>cluster_ShoppingCartModule_declarations</title>
<polygon fill="none" stroke="#000000" points="604,-78 604,-130 1250,-130 1250,-78 604,-78"/>
</g>
<g id="clust7" class="cluster">
<title>cluster_ShoppingCartModule_imports</title>
<polygon fill="none" stroke="#000000" points="282,-78 282,-130 596,-130 596,-78 282,-78"/>
</g>
<g id="clust10" class="cluster">
<title>cluster_ShoppingCartModule_providers</title>
<polygon fill="none" stroke="#000000" points="16,-78 16,-130 274,-130 274,-78 16,-78"/>
</g>
<!-- FirstStepComponent -->
<g id="node1" class="node">
<title>FirstStepComponent</title>
<polygon fill="#ffffb3" stroke="#000000" points="1241.8892,-122 1110.1108,-122 1110.1108,-86 1241.8892,-86 1241.8892,-122"/>
<text text-anchor="middle" x="1176" y="-99.8" font-family="Times,serif" font-size="14.00" fill="#000000">FirstStepComponent</text>
</g>
<!-- ShoppingCartModule -->
<g id="node5" class="node">
<title>ShoppingCartModule</title>
<polygon fill="#8dd3c7" stroke="#000000" points="749.8258,-187 746.8258,-191 725.8258,-191 722.8258,-187 612.1742,-187 612.1742,-151 749.8258,-151 749.8258,-187"/>
<text text-anchor="middle" x="681" y="-164.8" font-family="Times,serif" font-size="14.00" fill="#000000">ShoppingCartModule</text>
</g>
<!-- FirstStepComponent&#45;&gt;ShoppingCartModule -->
<g id="edge1" class="edge">
<title>FirstStepComponent&#45;&gt;ShoppingCartModule</title>
<path fill="none" stroke="#000000" d="M1176,-122.2921C1176,-144.2057 1176,-178 1176,-178 1176,-178 759.8276,-178 759.8276,-178"/>
<polygon fill="#000000" stroke="#000000" points="759.8277,-174.5001 749.8276,-178 759.8276,-181.5001 759.8277,-174.5001"/>
</g>
<!-- SecondStepComponent -->
<g id="node2" class="node">
<title>SecondStepComponent</title>
<polygon fill="#ffffb3" stroke="#000000" points="1091.9326,-122 944.0674,-122 944.0674,-86 1091.9326,-86 1091.9326,-122"/>
<text text-anchor="middle" x="1018" y="-99.8" font-family="Times,serif" font-size="14.00" fill="#000000">SecondStepComponent</text>
</g>
<!-- SecondStepComponent&#45;&gt;ShoppingCartModule -->
<g id="edge2" class="edge">
<title>SecondStepComponent&#45;&gt;ShoppingCartModule</title>
<path fill="none" stroke="#000000" d="M1018,-122.1061C1018,-141.3391 1018,-169 1018,-169 1018,-169 760.0102,-169 760.0102,-169"/>
<polygon fill="#000000" stroke="#000000" points="760.0102,-165.5001 750.0102,-169 760.0102,-172.5001 760.0102,-165.5001"/>
</g>
<!-- ShoppingCartComponent -->
<g id="node3" class="node">
<title>ShoppingCartComponent</title>
<polygon fill="#ffffb3" stroke="#000000" points="926.608,-122 767.392,-122 767.392,-86 926.608,-86 926.608,-122"/>
<text text-anchor="middle" x="847" y="-99.8" font-family="Times,serif" font-size="14.00" fill="#000000">ShoppingCartComponent</text>
</g>
<!-- ShoppingCartComponent&#45;&gt;ShoppingCartModule -->
<g id="edge3" class="edge">
<title>ShoppingCartComponent&#45;&gt;ShoppingCartModule</title>
<path fill="none" stroke="#000000" d="M847,-122.027C847,-138.3976 847,-160 847,-160 847,-160 759.9568,-160 759.9568,-160"/>
<polygon fill="#000000" stroke="#000000" points="759.9568,-156.5001 749.9568,-160 759.9568,-163.5001 759.9568,-156.5001"/>
</g>
<!-- ThirdStepComponent -->
<g id="node4" class="node">
<title>ThirdStepComponent</title>
<polygon fill="#ffffb3" stroke="#000000" points="749.8244,-122 612.1756,-122 612.1756,-86 749.8244,-86 749.8244,-122"/>
<text text-anchor="middle" x="681" y="-99.8" font-family="Times,serif" font-size="14.00" fill="#000000">ThirdStepComponent</text>
</g>
<!-- ThirdStepComponent&#45;&gt;ShoppingCartModule -->
<g id="edge4" class="edge">
<title>ThirdStepComponent&#45;&gt;ShoppingCartModule</title>
<path fill="none" stroke="#000000" d="M681,-122.1061C681,-122.1061 681,-140.991 681,-140.991"/>
<polygon fill="#000000" stroke="#000000" points="677.5001,-140.9909 681,-150.991 684.5001,-140.991 677.5001,-140.9909"/>
</g>
<!-- SharedModule -->
<g id="node6" class="node">
<title>SharedModule</title>
<polygon fill="#8dd3c7" stroke="#000000" points="588.4231,-122 585.4231,-126 564.4231,-126 561.4231,-122 489.5769,-122 489.5769,-86 588.4231,-86 588.4231,-122"/>
<text text-anchor="middle" x="539" y="-99.8" font-family="Times,serif" font-size="14.00" fill="#000000">SharedModule</text>
</g>
<!-- SharedModule&#45;&gt;ShoppingCartModule -->
<g id="edge5" class="edge">
<title>SharedModule&#45;&gt;ShoppingCartModule</title>
<path fill="none" stroke="#000000" d="M539,-122.027C539,-138.3976 539,-160 539,-160 539,-160 602.0798,-160 602.0798,-160"/>
<polygon fill="#000000" stroke="#000000" points="602.0798,-163.5001 612.0798,-160 602.0798,-156.5001 602.0798,-163.5001"/>
</g>
<!-- ShoppingCartRoutingModule -->
<g id="node7" class="node">
<title>ShoppingCartRoutingModule</title>
<polygon fill="#8dd3c7" stroke="#000000" points="472.4437,-122 469.4437,-126 448.4437,-126 445.4437,-122 289.5563,-122 289.5563,-86 472.4437,-86 472.4437,-122"/>
<text text-anchor="middle" x="381" y="-99.8" font-family="Times,serif" font-size="14.00" fill="#000000">ShoppingCartRoutingModule</text>
</g>
<!-- ShoppingCartRoutingModule&#45;&gt;ShoppingCartModule -->
<g id="edge6" class="edge">
<title>ShoppingCartRoutingModule&#45;&gt;ShoppingCartModule</title>
<path fill="none" stroke="#000000" d="M381,-122.1061C381,-141.3391 381,-169 381,-169 381,-169 602.1739,-169 602.1739,-169"/>
<polygon fill="#000000" stroke="#000000" points="602.174,-172.5001 612.1739,-169 602.1739,-165.5001 602.174,-172.5001"/>
</g>
<!-- ShoppingCartFacadeService -->
<g id="node8" class="node">
<title>ShoppingCartFacadeService</title>
<ellipse fill="#fdb462" stroke="#000000" cx="145" cy="-104" rx="120.9674" ry="18"/>
<text text-anchor="middle" x="145" y="-99.8" font-family="Times,serif" font-size="14.00" fill="#000000">ShoppingCartFacadeService</text>
</g>
<!-- ShoppingCartFacadeService&#45;&gt;ShoppingCartModule -->
<g id="edge7" class="edge">
<title>ShoppingCartFacadeService&#45;&gt;ShoppingCartModule</title>
<path fill="none" stroke="#000000" d="M145,-122.2921C145,-144.2057 145,-178 145,-178 145,-178 602.2979,-178 602.2979,-178"/>
<polygon fill="#000000" stroke="#000000" points="602.298,-181.5001 612.2979,-178 602.2979,-174.5001 602.298,-181.5001"/>
</g>
</g>
</svg>
