<?xml version="1.0" encoding="UTF-8" standalone="no"?>
<!DOCTYPE svg PUBLIC "-//W3C//DTD SVG 1.1//EN"
 "http://www.w3.org/Graphics/SVG/1.1/DTD/svg11.dtd">
<!-- Generated by graphviz version 2.40.1 (20161225.0304)
 -->
<!-- Title: dependencies Pages: 1 -->
<svg width="504pt" height="211pt"
 viewBox="0.00 0.00 504.00 211.00" xmlns="http://www.w3.org/2000/svg" xmlns:xlink="http://www.w3.org/1999/xlink">
<g id="graph0" class="graph" transform="scale(1 1) rotate(0) translate(4 207)">
<title>dependencies</title>
<polygon fill="#ffffff" stroke="transparent" points="-4,4 -4,-207 500,-207 500,4 -4,4"/>
<text text-anchor="start" x="227.0091" y="-42.4" font-family="sans-serif" font-weight="bold" font-size="14.00" fill="#000000">Legend</text>
<polygon fill="#ffffb3" stroke="transparent" points="14,-10 14,-30 34,-30 34,-10 14,-10"/>
<text text-anchor="start" x="37.629" y="-15.4" font-family="sans-serif" font-size="14.00" fill="#000000"> &#160;Declarations</text>
<polygon fill="#8dd3c7" stroke="transparent" points="127,-10 127,-30 147,-30 147,-10 127,-10"/>
<text text-anchor="start" x="150.7251" y="-15.4" font-family="sans-serif" font-size="14.00" fill="#000000"> &#160;Module</text>
<polygon fill="#80b1d3" stroke="transparent" points="213,-10 213,-30 233,-30 233,-10 213,-10"/>
<text text-anchor="start" x="236.7812" y="-15.4" font-family="sans-serif" font-size="14.00" fill="#000000"> &#160;Bootstrap</text>
<polygon fill="#fdb462" stroke="transparent" points="310,-10 310,-30 330,-30 330,-10 310,-10"/>
<text text-anchor="start" x="333.6732" y="-15.4" font-family="sans-serif" font-size="14.00" fill="#000000"> &#160;Providers</text>
<polygon fill="#fb8072" stroke="transparent" points="406,-10 406,-30 426,-30 426,-10 406,-10"/>
<text text-anchor="start" x="429.7258" y="-15.4" font-family="sans-serif" font-size="14.00" fill="#000000"> &#160;Exports</text>
<g id="clust1" class="cluster">
<title>cluster_SessionExpiredModule</title>
<polygon fill="none" stroke="#000000" stroke-dasharray="1,5" points="40,-70 40,-195 456,-195 456,-70 40,-70"/>
</g>
<g id="clust2" class="cluster">
<title>cluster_SessionExpiredModule_declarations</title>
<polygon fill="none" stroke="#000000" points="264,-78 264,-130 448,-130 448,-78 264,-78"/>
</g>
<g id="clust4" class="cluster">
<title>cluster_SessionExpiredModule_imports</title>
<polygon fill="none" stroke="#000000" points="48,-78 48,-130 256,-130 256,-78 48,-78"/>
</g>
<!-- SessionExpiredComponent -->
<g id="node1" class="node">
<title>SessionExpiredComponent</title>
<polygon fill="#ffffb3" stroke="#000000" points="440.4283,-122 271.5717,-122 271.5717,-86 440.4283,-86 440.4283,-122"/>
<text text-anchor="middle" x="356" y="-99.8" font-family="Times,serif" font-size="14.00" fill="#000000">SessionExpiredComponent</text>
</g>
<!-- SessionExpiredModule -->
<g id="node2" class="node">
<title>SessionExpiredModule</title>
<polygon fill="#8dd3c7" stroke="#000000" points="327.1456,-187 324.1456,-191 303.1456,-191 300.1456,-187 180.8544,-187 180.8544,-151 327.1456,-151 327.1456,-187"/>
<text text-anchor="middle" x="254" y="-164.8" font-family="Times,serif" font-size="14.00" fill="#000000">SessionExpiredModule</text>
</g>
<!-- SessionExpiredComponent&#45;&gt;SessionExpiredModule -->
<g id="edge1" class="edge">
<title>SessionExpiredComponent&#45;&gt;SessionExpiredModule</title>
<path fill="none" stroke="#000000" d="M299.5544,-122.1061C299.5544,-122.1061 299.5544,-140.991 299.5544,-140.991"/>
<polygon fill="#000000" stroke="#000000" points="296.0544,-140.9909 299.5544,-150.991 303.0544,-140.991 296.0544,-140.9909"/>
</g>
<!-- SessionExpiredRoutingModule -->
<g id="node3" class="node">
<title>SessionExpiredRoutingModule</title>
<polygon fill="#8dd3c7" stroke="#000000" points="247.7631,-122 244.7631,-126 223.7631,-126 220.7631,-122 56.2369,-122 56.2369,-86 247.7631,-86 247.7631,-122"/>
<text text-anchor="middle" x="152" y="-99.8" font-family="Times,serif" font-size="14.00" fill="#000000">SessionExpiredRoutingModule</text>
</g>
<!-- SessionExpiredRoutingModule&#45;&gt;SessionExpiredModule -->
<g id="edge2" class="edge">
<title>SessionExpiredRoutingModule&#45;&gt;SessionExpiredModule</title>
<path fill="none" stroke="#000000" d="M214.2795,-122.1061C214.2795,-122.1061 214.2795,-140.991 214.2795,-140.991"/>
<polygon fill="#000000" stroke="#000000" points="210.7795,-140.9909 214.2795,-150.991 217.7795,-140.991 210.7795,-140.9909"/>
</g>
</g>
</svg>
