<?xml version="1.0" encoding="UTF-8" standalone="no"?>
<!DOCTYPE svg PUBLIC "-//W3C//DTD SVG 1.1//EN"
 "http://www.w3.org/Graphics/SVG/1.1/DTD/svg11.dtd">
<!-- Generated by graphviz version 2.40.1 (20161225.0304)
 -->
<!-- Title: dependencies Pages: 1 -->
<svg width="976pt" height="211pt"
 viewBox="0.00 0.00 976.00 211.00" xmlns="http://www.w3.org/2000/svg" xmlns:xlink="http://www.w3.org/1999/xlink">
<g id="graph0" class="graph" transform="scale(1 1) rotate(0) translate(4 207)">
<title>dependencies</title>
<polygon fill="#ffffff" stroke="transparent" points="-4,4 -4,-207 972,-207 972,4 -4,4"/>
<text text-anchor="start" x="463.0091" y="-42.4" font-family="sans-serif" font-weight="bold" font-size="14.00" fill="#000000">Legend</text>
<polygon fill="#ffffb3" stroke="transparent" points="250,-10 250,-30 270,-30 270,-10 250,-10"/>
<text text-anchor="start" x="273.629" y="-15.4" font-family="sans-serif" font-size="14.00" fill="#000000"> &#160;Declarations</text>
<polygon fill="#8dd3c7" stroke="transparent" points="363,-10 363,-30 383,-30 383,-10 363,-10"/>
<text text-anchor="start" x="386.7251" y="-15.4" font-family="sans-serif" font-size="14.00" fill="#000000"> &#160;Module</text>
<polygon fill="#80b1d3" stroke="transparent" points="449,-10 449,-30 469,-30 469,-10 449,-10"/>
<text text-anchor="start" x="472.7812" y="-15.4" font-family="sans-serif" font-size="14.00" fill="#000000"> &#160;Bootstrap</text>
<polygon fill="#fdb462" stroke="transparent" points="546,-10 546,-30 566,-30 566,-10 546,-10"/>
<text text-anchor="start" x="569.6732" y="-15.4" font-family="sans-serif" font-size="14.00" fill="#000000"> &#160;Providers</text>
<polygon fill="#fb8072" stroke="transparent" points="642,-10 642,-30 662,-30 662,-10 642,-10"/>
<text text-anchor="start" x="665.7258" y="-15.4" font-family="sans-serif" font-size="14.00" fill="#000000"> &#160;Exports</text>
<g id="clust1" class="cluster">
<title>cluster_HomeModule</title>
<polygon fill="none" stroke="#000000" stroke-dasharray="1,5" points="8,-70 8,-195 960,-195 960,-70 8,-70"/>
</g>
<g id="clust2" class="cluster">
<title>cluster_HomeModule_declarations</title>
<polygon fill="none" stroke="#000000" points="513,-78 513,-130 952,-130 952,-78 513,-78"/>
</g>
<g id="clust6" class="cluster">
<title>cluster_HomeModule_imports</title>
<polygon fill="none" stroke="#000000" points="234,-78 234,-130 505,-130 505,-78 234,-78"/>
</g>
<g id="clust9" class="cluster">
<title>cluster_HomeModule_providers</title>
<polygon fill="none" stroke="#000000" points="16,-78 16,-130 226,-130 226,-78 16,-78"/>
</g>
<!-- ClotheComponent -->
<g id="node1" class="node">
<title>ClotheComponent</title>
<polygon fill="#ffffb3" stroke="#000000" points="944.1653,-122 825.8347,-122 825.8347,-86 944.1653,-86 944.1653,-122"/>
<text text-anchor="middle" x="885" y="-99.8" font-family="Times,serif" font-size="14.00" fill="#000000">ClotheComponent</text>
</g>
<!-- HomeModule -->
<g id="node4" class="node">
<title>HomeModule</title>
<polygon fill="#8dd3c7" stroke="#000000" points="549.7619,-187 546.7619,-191 525.7619,-191 522.7619,-187 456.2381,-187 456.2381,-151 549.7619,-151 549.7619,-187"/>
<text text-anchor="middle" x="503" y="-164.8" font-family="Times,serif" font-size="14.00" fill="#000000">HomeModule</text>
</g>
<!-- ClotheComponent&#45;&gt;HomeModule -->
<g id="edge1" class="edge">
<title>ClotheComponent&#45;&gt;HomeModule</title>
<path fill="none" stroke="#000000" d="M885,-122.2843C885,-143.3211 885,-175 885,-175 885,-175 559.8407,-175 559.8407,-175"/>
<polygon fill="#000000" stroke="#000000" points="559.8407,-171.5001 549.8407,-175 559.8407,-178.5001 559.8407,-171.5001"/>
</g>
<!-- ClotheDetailComponent -->
<g id="node2" class="node">
<title>ClotheDetailComponent</title>
<polygon fill="#ffffb3" stroke="#000000" points="807.3725,-122 654.6275,-122 654.6275,-86 807.3725,-86 807.3725,-122"/>
<text text-anchor="middle" x="731" y="-99.8" font-family="Times,serif" font-size="14.00" fill="#000000">ClotheDetailComponent</text>
</g>
<!-- ClotheDetailComponent&#45;&gt;HomeModule -->
<g id="edge2" class="edge">
<title>ClotheDetailComponent&#45;&gt;HomeModule</title>
<path fill="none" stroke="#000000" d="M731,-122.0225C731,-139.3734 731,-163 731,-163 731,-163 559.9653,-163 559.9653,-163"/>
<polygon fill="#000000" stroke="#000000" points="559.9653,-159.5001 549.9653,-163 559.9653,-166.5001 559.9653,-159.5001"/>
</g>
<!-- HomeComponent -->
<g id="node3" class="node">
<title>HomeComponent</title>
<polygon fill="#ffffb3" stroke="#000000" points="636.5451,-122 521.4549,-122 521.4549,-86 636.5451,-86 636.5451,-122"/>
<text text-anchor="middle" x="579" y="-99.8" font-family="Times,serif" font-size="14.00" fill="#000000">HomeComponent</text>
</g>
<!-- HomeComponent&#45;&gt;HomeModule -->
<g id="edge3" class="edge">
<title>HomeComponent&#45;&gt;HomeModule</title>
<path fill="none" stroke="#000000" d="M535.5544,-122.1061C535.5544,-122.1061 535.5544,-140.991 535.5544,-140.991"/>
<polygon fill="#000000" stroke="#000000" points="532.0544,-140.9909 535.5544,-150.991 539.0544,-140.991 532.0544,-140.9909"/>
</g>
<!-- HomeRoutingModule -->
<g id="node5" class="node">
<title>HomeRoutingModule</title>
<polygon fill="#8dd3c7" stroke="#000000" points="497.3795,-122 494.3795,-126 473.3795,-126 470.3795,-122 358.6205,-122 358.6205,-86 497.3795,-86 497.3795,-122"/>
<text text-anchor="middle" x="428" y="-99.8" font-family="Times,serif" font-size="14.00" fill="#000000">HomeRoutingModule</text>
</g>
<!-- HomeRoutingModule&#45;&gt;HomeModule -->
<g id="edge4" class="edge">
<title>HomeRoutingModule&#45;&gt;HomeModule</title>
<path fill="none" stroke="#000000" d="M476.7795,-122.1061C476.7795,-122.1061 476.7795,-140.991 476.7795,-140.991"/>
<polygon fill="#000000" stroke="#000000" points="473.2795,-140.9909 476.7795,-150.991 480.2795,-140.991 473.2795,-140.9909"/>
</g>
<!-- SharedModule -->
<g id="node6" class="node">
<title>SharedModule</title>
<polygon fill="#8dd3c7" stroke="#000000" points="340.4231,-122 337.4231,-126 316.4231,-126 313.4231,-122 241.5769,-122 241.5769,-86 340.4231,-86 340.4231,-122"/>
<text text-anchor="middle" x="291" y="-99.8" font-family="Times,serif" font-size="14.00" fill="#000000">SharedModule</text>
</g>
<!-- SharedModule&#45;&gt;HomeModule -->
<g id="edge5" class="edge">
<title>SharedModule&#45;&gt;HomeModule</title>
<path fill="none" stroke="#000000" d="M291,-122.0225C291,-139.3734 291,-163 291,-163 291,-163 446.2133,-163 446.2133,-163"/>
<polygon fill="#000000" stroke="#000000" points="446.2133,-166.5001 456.2133,-163 446.2132,-159.5001 446.2133,-166.5001"/>
</g>
<!-- ClothesFacadeService -->
<g id="node7" class="node">
<title>ClothesFacadeService</title>
<ellipse fill="#fdb462" stroke="#000000" cx="121" cy="-104" rx="96.6849" ry="18"/>
<text text-anchor="middle" x="121" y="-99.8" font-family="Times,serif" font-size="14.00" fill="#000000">ClothesFacadeService</text>
</g>
<!-- ClothesFacadeService&#45;&gt;HomeModule -->
<g id="edge6" class="edge">
<title>ClothesFacadeService&#45;&gt;HomeModule</title>
<path fill="none" stroke="#000000" d="M121,-122.2843C121,-143.3211 121,-175 121,-175 121,-175 446.1593,-175 446.1593,-175"/>
<polygon fill="#000000" stroke="#000000" points="446.1593,-178.5001 456.1593,-175 446.1593,-171.5001 446.1593,-178.5001"/>
</g>
</g>
</svg>
