<?xml version="1.0" encoding="UTF-8" standalone="no"?>
<!DOCTYPE svg PUBLIC "-//W3C//DTD SVG 1.1//EN"
 "http://www.w3.org/Graphics/SVG/1.1/DTD/svg11.dtd">
<!-- Generated by graphviz version 2.40.1 (20161225.0304)
 -->
<!-- Title: dependencies Pages: 1 -->
<svg width="1378pt" height="284pt"
 viewBox="0.00 0.00 1378.00 284.00" xmlns="http://www.w3.org/2000/svg" xmlns:xlink="http://www.w3.org/1999/xlink">
<g id="graph0" class="graph" transform="scale(1 1) rotate(0) translate(4 280)">
<title>dependencies</title>
<polygon fill="#ffffff" stroke="transparent" points="-4,4 -4,-280 1374,-280 1374,4 -4,4"/>
<text text-anchor="start" x="664.0091" y="-42.4" font-family="sans-serif" font-weight="bold" font-size="14.00" fill="#000000">Legend</text>
<polygon fill="#ffffb3" stroke="transparent" points="451,-10 451,-30 471,-30 471,-10 451,-10"/>
<text text-anchor="start" x="474.629" y="-15.4" font-family="sans-serif" font-size="14.00" fill="#000000"> &#160;Declarations</text>
<polygon fill="#8dd3c7" stroke="transparent" points="564,-10 564,-30 584,-30 584,-10 564,-10"/>
<text text-anchor="start" x="587.7251" y="-15.4" font-family="sans-serif" font-size="14.00" fill="#000000"> &#160;Module</text>
<polygon fill="#80b1d3" stroke="transparent" points="650,-10 650,-30 670,-30 670,-10 650,-10"/>
<text text-anchor="start" x="673.7812" y="-15.4" font-family="sans-serif" font-size="14.00" fill="#000000"> &#160;Bootstrap</text>
<polygon fill="#fdb462" stroke="transparent" points="747,-10 747,-30 767,-30 767,-10 747,-10"/>
<text text-anchor="start" x="770.6732" y="-15.4" font-family="sans-serif" font-size="14.00" fill="#000000"> &#160;Providers</text>
<polygon fill="#fb8072" stroke="transparent" points="843,-10 843,-30 863,-30 863,-10 843,-10"/>
<text text-anchor="start" x="866.7258" y="-15.4" font-family="sans-serif" font-size="14.00" fill="#000000"> &#160;Exports</text>
<g id="clust1" class="cluster">
<title>cluster_AppModule</title>
<polygon fill="none" stroke="#000000" stroke-dasharray="1,5" points="8,-70 8,-268 1362,-268 1362,-70 8,-70"/>
</g>
<g id="clust2" class="cluster">
<title>cluster_AppModule_declarations</title>
<polygon fill="none" stroke="#000000" points="627,-78 627,-130 1354,-130 1354,-78 627,-78"/>
</g>
<g id="clust8" class="cluster">
<title>cluster_AppModule_imports</title>
<polygon fill="none" stroke="#000000" points="370,-78 370,-130 619,-130 619,-78 370,-78"/>
</g>
<g id="clust10" class="cluster">
<title>cluster_AppModule_bootstrap</title>
<polygon fill="none" stroke="#000000" points="643,-208 643,-260 767,-260 767,-208 643,-208"/>
</g>
<g id="clust11" class="cluster">
<title>cluster_AppModule_providers</title>
<polygon fill="none" stroke="#000000" points="16,-78 16,-130 362,-130 362,-78 16,-78"/>
</g>
<!-- AppComponent -->
<g id="node1" class="node">
<title>AppComponent</title>
<polygon fill="#ffffb3" stroke="#000000" points="1345.9399,-122 1240.0601,-122 1240.0601,-86 1345.9399,-86 1345.9399,-122"/>
<text text-anchor="middle" x="1293" y="-99.8" font-family="Times,serif" font-size="14.00" fill="#000000">AppComponent</text>
</g>
<!-- AppModule -->
<g id="node6" class="node">
<title>AppModule</title>
<polygon fill="#8dd3c7" stroke="#000000" points="746.6571,-187 743.6571,-191 722.6571,-191 719.6571,-187 663.3429,-187 663.3429,-151 746.6571,-151 746.6571,-187"/>
<text text-anchor="middle" x="705" y="-164.8" font-family="Times,serif" font-size="14.00" fill="#000000">AppModule</text>
</g>
<!-- AppComponent&#45;&gt;AppModule -->
<g id="edge1" class="edge">
<title>AppComponent&#45;&gt;AppModule</title>
<path fill="none" stroke="#000000" d="M1293,-122.0109C1293,-144.4852 1293,-180 1293,-180 1293,-180 756.8161,-180 756.8161,-180"/>
<polygon fill="#000000" stroke="#000000" points="756.8162,-176.5001 746.8161,-180 756.8161,-183.5001 756.8162,-176.5001"/>
</g>
<!-- CartComponent -->
<g id="node2" class="node">
<title>CartComponent</title>
<polygon fill="#ffffb3" stroke="#000000" points="1222.9357,-122 1117.0643,-122 1117.0643,-86 1222.9357,-86 1222.9357,-122"/>
<text text-anchor="middle" x="1170" y="-99.8" font-family="Times,serif" font-size="14.00" fill="#000000">CartComponent</text>
</g>
<!-- CartComponent&#45;&gt;AppModule -->
<g id="edge2" class="edge">
<title>CartComponent&#45;&gt;AppModule</title>
<path fill="none" stroke="#000000" d="M1170,-122.1289C1170,-142.5724 1170,-173 1170,-173 1170,-173 756.6749,-173 756.6749,-173"/>
<polygon fill="#000000" stroke="#000000" points="756.6749,-169.5001 746.6749,-173 756.6748,-176.5001 756.6749,-169.5001"/>
</g>
<!-- CartProductItemComponent -->
<g id="node3" class="node">
<title>CartProductItemComponent</title>
<polygon fill="#ffffb3" stroke="#000000" points="1099.14,-122 924.86,-122 924.86,-86 1099.14,-86 1099.14,-122"/>
<text text-anchor="middle" x="1012" y="-99.8" font-family="Times,serif" font-size="14.00" fill="#000000">CartProductItemComponent</text>
</g>
<!-- CartProductItemComponent&#45;&gt;AppModule -->
<g id="edge3" class="edge">
<title>CartProductItemComponent&#45;&gt;AppModule</title>
<path fill="none" stroke="#000000" d="M1012,-122.2667C1012,-140.5552 1012,-166 1012,-166 1012,-166 756.7229,-166 756.7229,-166"/>
<polygon fill="#000000" stroke="#000000" points="756.7229,-162.5001 746.7229,-166 756.7229,-169.5001 756.7229,-162.5001"/>
</g>
<!-- MenuComponent -->
<g id="node4" class="node">
<title>MenuComponent</title>
<polygon fill="#ffffb3" stroke="#000000" points="906.9916,-122 793.0084,-122 793.0084,-86 906.9916,-86 906.9916,-122"/>
<text text-anchor="middle" x="850" y="-99.8" font-family="Times,serif" font-size="14.00" fill="#000000">MenuComponent</text>
</g>
<!-- MenuComponent&#45;&gt;AppModule -->
<g id="edge4" class="edge">
<title>MenuComponent&#45;&gt;AppModule</title>
<path fill="none" stroke="#000000" d="M850,-122.0091C850,-138.0494 850,-159 850,-159 850,-159 756.94,-159 756.94,-159"/>
<polygon fill="#000000" stroke="#000000" points="756.94,-155.5001 746.94,-159 756.94,-162.5001 756.94,-155.5001"/>
</g>
<!-- MenuLinkComponent -->
<g id="node5" class="node">
<title>MenuLinkComponent</title>
<polygon fill="#ffffb3" stroke="#000000" points="775.4355,-122 634.5645,-122 634.5645,-86 775.4355,-86 775.4355,-122"/>
<text text-anchor="middle" x="705" y="-99.8" font-family="Times,serif" font-size="14.00" fill="#000000">MenuLinkComponent</text>
</g>
<!-- MenuLinkComponent&#45;&gt;AppModule -->
<g id="edge5" class="edge">
<title>MenuLinkComponent&#45;&gt;AppModule</title>
<path fill="none" stroke="#000000" d="M705,-122.1061C705,-122.1061 705,-140.991 705,-140.991"/>
<polygon fill="#000000" stroke="#000000" points="701.5001,-140.9909 705,-150.991 708.5001,-140.991 701.5001,-140.9909"/>
</g>
<!-- AppComponent  -->
<g id="node9" class="node">
<title>AppComponent </title>
<polygon fill="#80b1d3" stroke="#000000" points="759.439,-252 650.561,-252 650.561,-216 759.439,-216 759.439,-252"/>
<text text-anchor="middle" x="705" y="-229.8" font-family="Times,serif" font-size="14.00" fill="#000000">AppComponent </text>
</g>
<!-- AppModule&#45;&gt;AppComponent  -->
<g id="edge8" class="edge">
<title>AppModule&#45;&gt;AppComponent </title>
<path fill="none" stroke="#000000" stroke-dasharray="1,5" d="M705,-187.1061C705,-187.1061 705,-205.991 705,-205.991"/>
<polygon fill="#000000" stroke="#000000" points="701.5001,-205.9909 705,-215.991 708.5001,-205.991 701.5001,-205.9909"/>
</g>
<!-- AppRoutingModule -->
<g id="node7" class="node">
<title>AppRoutingModule</title>
<polygon fill="#8dd3c7" stroke="#000000" points="611.2744,-122 608.2744,-126 587.2744,-126 584.2744,-122 482.7256,-122 482.7256,-86 611.2744,-86 611.2744,-122"/>
<text text-anchor="middle" x="547" y="-99.8" font-family="Times,serif" font-size="14.00" fill="#000000">AppRoutingModule</text>
</g>
<!-- AppRoutingModule&#45;&gt;AppModule -->
<g id="edge6" class="edge">
<title>AppRoutingModule&#45;&gt;AppModule</title>
<path fill="none" stroke="#000000" d="M547,-122.0091C547,-138.0494 547,-159 547,-159 547,-159 653.0737,-159 653.0737,-159"/>
<polygon fill="#000000" stroke="#000000" points="653.0738,-162.5001 663.0737,-159 653.0737,-155.5001 653.0738,-162.5001"/>
</g>
<!-- CoreModule -->
<g id="node8" class="node">
<title>CoreModule</title>
<polygon fill="#8dd3c7" stroke="#000000" points="464.2619,-122 461.2619,-126 440.2619,-126 437.2619,-122 377.7381,-122 377.7381,-86 464.2619,-86 464.2619,-122"/>
<text text-anchor="middle" x="421" y="-99.8" font-family="Times,serif" font-size="14.00" fill="#000000">CoreModule</text>
</g>
<!-- CoreModule&#45;&gt;AppModule -->
<g id="edge7" class="edge">
<title>CoreModule&#45;&gt;AppModule</title>
<path fill="none" stroke="#000000" d="M421,-122.2667C421,-140.5552 421,-166 421,-166 421,-166 653.0948,-166 653.0948,-166"/>
<polygon fill="#000000" stroke="#000000" points="653.0949,-169.5001 663.0948,-166 653.0948,-162.5001 653.0949,-169.5001"/>
</g>
<!-- AuthInterceptor -->
<g id="node10" class="node">
<title>AuthInterceptor</title>
<ellipse fill="#fdb462" stroke="#000000" cx="281" cy="-104" rx="72.9121" ry="18"/>
<text text-anchor="middle" x="281" y="-99.8" font-family="Times,serif" font-size="14.00" fill="#000000">AuthInterceptor</text>
</g>
<!-- AuthInterceptor&#45;&gt;AppModule -->
<g id="edge9" class="edge">
<title>AuthInterceptor&#45;&gt;AppModule</title>
<path fill="none" stroke="#000000" d="M281,-122.1289C281,-142.5724 281,-173 281,-173 281,-173 653.1849,-173 653.1849,-173"/>
<polygon fill="#000000" stroke="#000000" points="653.1849,-176.5001 663.1849,-173 653.1848,-169.5001 653.1849,-176.5001"/>
</g>
<!-- SessionInterceptor -->
<g id="node11" class="node">
<title>SessionInterceptor</title>
<ellipse fill="#fdb462" stroke="#000000" cx="107" cy="-104" rx="82.8013" ry="18"/>
<text text-anchor="middle" x="107" y="-99.8" font-family="Times,serif" font-size="14.00" fill="#000000">SessionInterceptor</text>
</g>
<!-- SessionInterceptor&#45;&gt;AppModule -->
<g id="edge10" class="edge">
<title>SessionInterceptor&#45;&gt;AppModule</title>
<path fill="none" stroke="#000000" d="M107,-122.0109C107,-144.4852 107,-180 107,-180 107,-180 652.9498,-180 652.9498,-180"/>
<polygon fill="#000000" stroke="#000000" points="652.9498,-183.5001 662.9498,-180 652.9498,-176.5001 652.9498,-183.5001"/>
</g>
</g>
</svg>
