<?xml version="1.0" encoding="UTF-8" standalone="no"?>
<!DOCTYPE svg PUBLIC "-//W3C//DTD SVG 1.1//EN"
 "http://www.w3.org/Graphics/SVG/1.1/DTD/svg11.dtd">
<!-- Generated by graphviz version 2.40.1 (20161225.0304)
 -->
<!-- Title: dependencies Pages: 1 -->
<svg width="1470pt" height="284pt"
 viewBox="0.00 0.00 1470.00 284.00" xmlns="http://www.w3.org/2000/svg" xmlns:xlink="http://www.w3.org/1999/xlink">
<g id="graph0" class="graph" transform="scale(1 1) rotate(0) translate(4 280)">
<title>dependencies</title>
<polygon fill="#ffffff" stroke="transparent" points="-4,4 -4,-280 1466,-280 1466,4 -4,4"/>
<text text-anchor="start" x="710.0091" y="-42.4" font-family="sans-serif" font-weight="bold" font-size="14.00" fill="#000000">Legend</text>
<polygon fill="#ffffb3" stroke="transparent" points="497,-10 497,-30 517,-30 517,-10 497,-10"/>
<text text-anchor="start" x="520.629" y="-15.4" font-family="sans-serif" font-size="14.00" fill="#000000"> &#160;Declarations</text>
<polygon fill="#8dd3c7" stroke="transparent" points="610,-10 610,-30 630,-30 630,-10 610,-10"/>
<text text-anchor="start" x="633.7251" y="-15.4" font-family="sans-serif" font-size="14.00" fill="#000000"> &#160;Module</text>
<polygon fill="#80b1d3" stroke="transparent" points="696,-10 696,-30 716,-30 716,-10 696,-10"/>
<text text-anchor="start" x="719.7812" y="-15.4" font-family="sans-serif" font-size="14.00" fill="#000000"> &#160;Bootstrap</text>
<polygon fill="#fdb462" stroke="transparent" points="793,-10 793,-30 813,-30 813,-10 793,-10"/>
<text text-anchor="start" x="816.6732" y="-15.4" font-family="sans-serif" font-size="14.00" fill="#000000"> &#160;Providers</text>
<polygon fill="#fb8072" stroke="transparent" points="889,-10 889,-30 909,-30 909,-10 889,-10"/>
<text text-anchor="start" x="912.7258" y="-15.4" font-family="sans-serif" font-size="14.00" fill="#000000"> &#160;Exports</text>
<g id="clust1" class="cluster">
<title>cluster_AppModule</title>
<polygon fill="none" stroke="#000000" stroke-dasharray="1,5" points="8,-70 8,-268 1454,-268 1454,-70 8,-70"/>
</g>
<g id="clust2" class="cluster">
<title>cluster_AppModule_declarations</title>
<polygon fill="none" stroke="#000000" points="719,-78 719,-130 1446,-130 1446,-78 719,-78"/>
</g>
<g id="clust8" class="cluster">
<title>cluster_AppModule_imports</title>
<polygon fill="none" stroke="#000000" points="370,-78 370,-130 711,-130 711,-78 370,-78"/>
</g>
<g id="clust10" class="cluster">
<title>cluster_AppModule_bootstrap</title>
<polygon fill="none" stroke="#000000" points="656,-208 656,-260 780,-260 780,-208 656,-208"/>
</g>
<g id="clust11" class="cluster">
<title>cluster_AppModule_providers</title>
<polygon fill="none" stroke="#000000" points="16,-78 16,-130 362,-130 362,-78 16,-78"/>
</g>
<!-- AppComponent -->
<g id="node1" class="node">
<title>AppComponent</title>
<polygon fill="#ffffb3" stroke="#000000" points="1437.9399,-122 1332.0601,-122 1332.0601,-86 1437.9399,-86 1437.9399,-122"/>
<text text-anchor="middle" x="1385" y="-99.8" font-family="Times,serif" font-size="14.00" fill="#000000">AppComponent</text>
</g>
<!-- AppModule -->
<g id="node6" class="node">
<title>AppModule</title>
<polygon fill="#8dd3c7" stroke="#000000" points="759.6571,-187 756.6571,-191 735.6571,-191 732.6571,-187 676.3429,-187 676.3429,-151 759.6571,-151 759.6571,-187"/>
<text text-anchor="middle" x="718" y="-164.8" font-family="Times,serif" font-size="14.00" fill="#000000">AppModule</text>
</g>
<!-- AppComponent&#45;&gt;AppModule -->
<g id="edge1" class="edge">
<title>AppComponent&#45;&gt;AppModule</title>
<path fill="none" stroke="#000000" d="M1385,-122.0109C1385,-144.4852 1385,-180 1385,-180 1385,-180 769.7238,-180 769.7238,-180"/>
<polygon fill="#000000" stroke="#000000" points="769.7239,-176.5001 759.7238,-180 769.7238,-183.5001 769.7239,-176.5001"/>
</g>
<!-- CartComponent -->
<g id="node2" class="node">
<title>CartComponent</title>
<polygon fill="#ffffb3" stroke="#000000" points="1314.9357,-122 1209.0643,-122 1209.0643,-86 1314.9357,-86 1314.9357,-122"/>
<text text-anchor="middle" x="1262" y="-99.8" font-family="Times,serif" font-size="14.00" fill="#000000">CartComponent</text>
</g>
<!-- CartComponent&#45;&gt;AppModule -->
<g id="edge2" class="edge">
<title>CartComponent&#45;&gt;AppModule</title>
<path fill="none" stroke="#000000" d="M1262,-122.1289C1262,-142.5724 1262,-173 1262,-173 1262,-173 769.7835,-173 769.7835,-173"/>
<polygon fill="#000000" stroke="#000000" points="769.7835,-169.5001 759.7835,-173 769.7834,-176.5001 769.7835,-169.5001"/>
</g>
<!-- CartProductItemComponent -->
<g id="node3" class="node">
<title>CartProductItemComponent</title>
<polygon fill="#ffffb3" stroke="#000000" points="1191.14,-122 1016.86,-122 1016.86,-86 1191.14,-86 1191.14,-122"/>
<text text-anchor="middle" x="1104" y="-99.8" font-family="Times,serif" font-size="14.00" fill="#000000">CartProductItemComponent</text>
</g>
<!-- CartProductItemComponent&#45;&gt;AppModule -->
<g id="edge3" class="edge">
<title>CartProductItemComponent&#45;&gt;AppModule</title>
<path fill="none" stroke="#000000" d="M1104,-122.2667C1104,-140.5552 1104,-166 1104,-166 1104,-166 769.6755,-166 769.6755,-166"/>
<polygon fill="#000000" stroke="#000000" points="769.6755,-162.5001 759.6755,-166 769.6755,-169.5001 769.6755,-162.5001"/>
</g>
<!-- MenuComponent -->
<g id="node4" class="node">
<title>MenuComponent</title>
<polygon fill="#ffffb3" stroke="#000000" points="998.9916,-122 885.0084,-122 885.0084,-86 998.9916,-86 998.9916,-122"/>
<text text-anchor="middle" x="942" y="-99.8" font-family="Times,serif" font-size="14.00" fill="#000000">MenuComponent</text>
</g>
<!-- MenuComponent&#45;&gt;AppModule -->
<g id="edge4" class="edge">
<title>MenuComponent&#45;&gt;AppModule</title>
<path fill="none" stroke="#000000" d="M942,-122.0091C942,-138.0494 942,-159 942,-159 942,-159 769.8699,-159 769.8699,-159"/>
<polygon fill="#000000" stroke="#000000" points="769.87,-155.5001 759.8699,-159 769.8699,-162.5001 769.87,-155.5001"/>
</g>
<!-- MenuLinkComponent -->
<g id="node5" class="node">
<title>MenuLinkComponent</title>
<polygon fill="#ffffb3" stroke="#000000" points="867.4355,-122 726.5645,-122 726.5645,-86 867.4355,-86 867.4355,-122"/>
<text text-anchor="middle" x="797" y="-99.8" font-family="Times,serif" font-size="14.00" fill="#000000">MenuLinkComponent</text>
</g>
<!-- MenuLinkComponent&#45;&gt;AppModule -->
<g id="edge5" class="edge">
<title>MenuLinkComponent&#45;&gt;AppModule</title>
<path fill="none" stroke="#000000" d="M743.3054,-122.1061C743.3054,-122.1061 743.3054,-140.991 743.3054,-140.991"/>
<polygon fill="#000000" stroke="#000000" points="739.8055,-140.9909 743.3054,-150.991 746.8055,-140.991 739.8055,-140.9909"/>
</g>
<!-- AppComponent  -->
<g id="node10" class="node">
<title>AppComponent </title>
<polygon fill="#80b1d3" stroke="#000000" points="772.439,-252 663.561,-252 663.561,-216 772.439,-216 772.439,-252"/>
<text text-anchor="middle" x="718" y="-229.8" font-family="Times,serif" font-size="14.00" fill="#000000">AppComponent </text>
</g>
<!-- AppModule&#45;&gt;AppComponent  -->
<g id="edge9" class="edge">
<title>AppModule&#45;&gt;AppComponent </title>
<path fill="none" stroke="#000000" stroke-dasharray="1,5" d="M718,-187.1061C718,-187.1061 718,-205.991 718,-205.991"/>
<polygon fill="#000000" stroke="#000000" points="714.5001,-205.9909 718,-215.991 721.5001,-205.991 714.5001,-205.9909"/>
</g>
<!-- AppRoutingModule -->
<g id="node7" class="node">
<title>AppRoutingModule</title>
<polygon fill="#8dd3c7" stroke="#000000" points="703.2744,-122 700.2744,-126 679.2744,-126 676.2744,-122 574.7256,-122 574.7256,-86 703.2744,-86 703.2744,-122"/>
<text text-anchor="middle" x="639" y="-99.8" font-family="Times,serif" font-size="14.00" fill="#000000">AppRoutingModule</text>
</g>
<!-- AppRoutingModule&#45;&gt;AppModule -->
<g id="edge6" class="edge">
<title>AppRoutingModule&#45;&gt;AppModule</title>
<path fill="none" stroke="#000000" d="M689.7795,-122.1061C689.7795,-122.1061 689.7795,-140.991 689.7795,-140.991"/>
<polygon fill="#000000" stroke="#000000" points="686.2795,-140.9909 689.7795,-150.991 693.2795,-140.991 686.2795,-140.9909"/>
</g>
<!-- CoreModule -->
<g id="node8" class="node">
<title>CoreModule</title>
<polygon fill="#8dd3c7" stroke="#000000" points="556.2619,-122 553.2619,-126 532.2619,-126 529.2619,-122 469.7381,-122 469.7381,-86 556.2619,-86 556.2619,-122"/>
<text text-anchor="middle" x="513" y="-99.8" font-family="Times,serif" font-size="14.00" fill="#000000">CoreModule</text>
</g>
<!-- CoreModule&#45;&gt;AppModule -->
<g id="edge7" class="edge">
<title>CoreModule&#45;&gt;AppModule</title>
<path fill="none" stroke="#000000" d="M513,-122.0091C513,-138.0494 513,-159 513,-159 513,-159 666.0205,-159 666.0205,-159"/>
<polygon fill="#000000" stroke="#000000" points="666.0205,-162.5001 676.0205,-159 666.0205,-155.5001 666.0205,-162.5001"/>
</g>
<!-- UiModule -->
<g id="node9" class="node">
<title>UiModule</title>
<polygon fill="#8dd3c7" stroke="#000000" points="451.5484,-122 448.5484,-126 427.5484,-126 424.5484,-122 378.4516,-122 378.4516,-86 451.5484,-86 451.5484,-122"/>
<text text-anchor="middle" x="415" y="-99.8" font-family="Times,serif" font-size="14.00" fill="#000000">UiModule</text>
</g>
<!-- UiModule&#45;&gt;AppModule -->
<g id="edge8" class="edge">
<title>UiModule&#45;&gt;AppModule</title>
<path fill="none" stroke="#000000" d="M415,-122.2667C415,-140.5552 415,-166 415,-166 415,-166 666.1873,-166 666.1873,-166"/>
<polygon fill="#000000" stroke="#000000" points="666.1873,-169.5001 676.1873,-166 666.1872,-162.5001 666.1873,-169.5001"/>
</g>
<!-- AuthInterceptor -->
<g id="node11" class="node">
<title>AuthInterceptor</title>
<ellipse fill="#fdb462" stroke="#000000" cx="281" cy="-104" rx="72.9121" ry="18"/>
<text text-anchor="middle" x="281" y="-99.8" font-family="Times,serif" font-size="14.00" fill="#000000">AuthInterceptor</text>
</g>
<!-- AuthInterceptor&#45;&gt;AppModule -->
<g id="edge10" class="edge">
<title>AuthInterceptor&#45;&gt;AppModule</title>
<path fill="none" stroke="#000000" d="M281,-122.1289C281,-142.5724 281,-173 281,-173 281,-173 666.0986,-173 666.0986,-173"/>
<polygon fill="#000000" stroke="#000000" points="666.0986,-176.5001 676.0986,-173 666.0986,-169.5001 666.0986,-176.5001"/>
</g>
<!-- SessionInterceptor -->
<g id="node12" class="node">
<title>SessionInterceptor</title>
<ellipse fill="#fdb462" stroke="#000000" cx="107" cy="-104" rx="82.8013" ry="18"/>
<text text-anchor="middle" x="107" y="-99.8" font-family="Times,serif" font-size="14.00" fill="#000000">SessionInterceptor</text>
</g>
<!-- SessionInterceptor&#45;&gt;AppModule -->
<g id="edge11" class="edge">
<title>SessionInterceptor&#45;&gt;AppModule</title>
<path fill="none" stroke="#000000" d="M107,-122.0109C107,-144.4852 107,-180 107,-180 107,-180 666.0035,-180 666.0035,-180"/>
<polygon fill="#000000" stroke="#000000" points="666.0035,-183.5001 676.0035,-180 666.0035,-176.5001 666.0035,-183.5001"/>
</g>
</g>
</svg>
