<?xml version="1.0" encoding="UTF-8" standalone="no"?>
<!DOCTYPE svg PUBLIC "-//W3C//DTD SVG 1.1//EN"
 "http://www.w3.org/Graphics/SVG/1.1/DTD/svg11.dtd">
<!-- Generated by graphviz version 2.40.1 (20161225.0304)
 -->
<!-- Title: dependencies Pages: 1 -->
<svg width="6770pt" height="360pt"
 viewBox="0.00 0.00 6770.00 360.00" xmlns="http://www.w3.org/2000/svg" xmlns:xlink="http://www.w3.org/1999/xlink">
<g id="graph0" class="graph" transform="scale(1 1) rotate(0) translate(4 356)">
<title>dependencies</title>
<polygon fill="#ffffff" stroke="transparent" points="-4,4 -4,-356 6766,-356 6766,4 -4,4"/>
<text text-anchor="start" x="3360.0091" y="-42.4" font-family="sans-serif" font-weight="bold" font-size="14.00" fill="#000000">Legend</text>
<polygon fill="#ffffb3" stroke="transparent" points="3147,-10 3147,-30 3167,-30 3167,-10 3147,-10"/>
<text text-anchor="start" x="3170.629" y="-15.4" font-family="sans-serif" font-size="14.00" fill="#000000"> &#160;Declarations</text>
<polygon fill="#8dd3c7" stroke="transparent" points="3260,-10 3260,-30 3280,-30 3280,-10 3260,-10"/>
<text text-anchor="start" x="3283.7251" y="-15.4" font-family="sans-serif" font-size="14.00" fill="#000000"> &#160;Module</text>
<polygon fill="#80b1d3" stroke="transparent" points="3346,-10 3346,-30 3366,-30 3366,-10 3346,-10"/>
<text text-anchor="start" x="3369.7812" y="-15.4" font-family="sans-serif" font-size="14.00" fill="#000000"> &#160;Bootstrap</text>
<polygon fill="#fdb462" stroke="transparent" points="3443,-10 3443,-30 3463,-30 3463,-10 3443,-10"/>
<text text-anchor="start" x="3466.6732" y="-15.4" font-family="sans-serif" font-size="14.00" fill="#000000"> &#160;Providers</text>
<polygon fill="#fb8072" stroke="transparent" points="3539,-10 3539,-30 3559,-30 3559,-10 3539,-10"/>
<text text-anchor="start" x="3562.7258" y="-15.4" font-family="sans-serif" font-size="14.00" fill="#000000"> &#160;Exports</text>
<g id="clust1" class="cluster">
<title>cluster_AppModule</title>
<polygon fill="none" stroke="#000000" stroke-dasharray="1,5" points="8,-146 8,-344 1363,-344 1363,-146 8,-146"/>
</g>
<g id="clust2" class="cluster">
<title>cluster_AppModule_declarations</title>
<polygon fill="none" stroke="#000000" points="627,-154 627,-206 1355,-206 1355,-154 627,-154"/>
</g>
<g id="clust8" class="cluster">
<title>cluster_AppModule_imports</title>
<polygon fill="none" stroke="#000000" points="370,-154 370,-206 619,-206 619,-154 370,-154"/>
</g>
<g id="clust10" class="cluster">
<title>cluster_AppModule_bootstrap</title>
<polygon fill="none" stroke="#000000" points="626,-284 626,-336 750,-336 750,-284 626,-284"/>
</g>
<g id="clust11" class="cluster">
<title>cluster_AppModule_providers</title>
<polygon fill="none" stroke="#000000" points="16,-154 16,-206 362,-206 362,-154 16,-154"/>
</g>
<g id="clust18" class="cluster">
<title>cluster_AuthModule</title>
<polygon fill="none" stroke="#000000" stroke-dasharray="1,5" points="1371,-70 1371,-206 2060,-206 2060,-70 1371,-70"/>
</g>
<g id="clust19" class="cluster">
<title>cluster_AuthModule_declarations</title>
<polygon fill="none" stroke="#000000" points="1379,-78 1379,-130 1779,-130 1779,-78 1379,-78"/>
</g>
<g id="clust23" class="cluster">
<title>cluster_AuthModule_imports</title>
<polygon fill="none" stroke="#000000" points="1787,-78 1787,-130 2052,-130 2052,-78 1787,-78"/>
</g>
<g id="clust33" class="cluster">
<title>cluster_CoreModule</title>
<polygon fill="none" stroke="#000000" stroke-dasharray="1,5" points="282,-70 282,-138 560,-138 560,-70 282,-70"/>
</g>
<g id="clust38" class="cluster">
<title>cluster_CoreModule_providers</title>
<polygon fill="none" stroke="#000000" points="290,-78 290,-130 552,-130 552,-78 290,-78"/>
</g>
<g id="clust39" class="cluster">
<title>cluster_HomeModule</title>
<polygon fill="none" stroke="#000000" stroke-dasharray="1,5" points="4353,-70 4353,-206 5187,-206 5187,-70 4353,-70"/>
</g>
<g id="clust40" class="cluster">
<title>cluster_HomeModule_declarations</title>
<polygon fill="none" stroke="#000000" points="4741,-78 4741,-130 5179,-130 5179,-78 4741,-78"/>
</g>
<g id="clust44" class="cluster">
<title>cluster_HomeModule_imports</title>
<polygon fill="none" stroke="#000000" points="4579,-78 4579,-130 4733,-130 4733,-78 4579,-78"/>
</g>
<g id="clust47" class="cluster">
<title>cluster_HomeModule_providers</title>
<polygon fill="none" stroke="#000000" points="4361,-78 4361,-130 4571,-130 4571,-78 4361,-78"/>
</g>
<g id="clust54" class="cluster">
<title>cluster_SessionExpiredModule</title>
<polygon fill="none" stroke="#000000" stroke-dasharray="1,5" points="6338,-70 6338,-206 6754,-206 6754,-70 6338,-70"/>
</g>
<g id="clust55" class="cluster">
<title>cluster_SessionExpiredModule_declarations</title>
<polygon fill="none" stroke="#000000" points="6562,-78 6562,-130 6746,-130 6746,-78 6562,-78"/>
</g>
<g id="clust57" class="cluster">
<title>cluster_SessionExpiredModule_imports</title>
<polygon fill="none" stroke="#000000" points="6346,-78 6346,-130 6554,-130 6554,-78 6346,-78"/>
</g>
<g id="clust67" class="cluster">
<title>cluster_SharedModule</title>
<polygon fill="none" stroke="#000000" stroke-dasharray="1,5" points="2068,-146 2068,-214 4345,-214 4345,-146 2068,-146"/>
</g>
<g id="clust68" class="cluster">
<title>cluster_SharedModule_declarations</title>
<polygon fill="none" stroke="#000000" points="3222,-154 3222,-206 4337,-206 4337,-154 3222,-154"/>
</g>
<g id="clust77" class="cluster">
<title>cluster_SharedModule_exports</title>
<polygon fill="none" stroke="#000000" points="2076,-154 2076,-206 3214,-206 3214,-154 2076,-154"/>
</g>
<g id="clust80" class="cluster">
<title>cluster_ShoppingCartModule</title>
<polygon fill="none" stroke="#000000" stroke-dasharray="1,5" points="5195,-70 5195,-206 6330,-206 6330,-70 5195,-70"/>
</g>
<g id="clust81" class="cluster">
<title>cluster_ShoppingCartModule_declarations</title>
<polygon fill="none" stroke="#000000" points="5675,-78 5675,-130 6322,-130 6322,-78 5675,-78"/>
</g>
<g id="clust86" class="cluster">
<title>cluster_ShoppingCartModule_imports</title>
<polygon fill="none" stroke="#000000" points="5469,-78 5469,-130 5667,-130 5667,-78 5469,-78"/>
</g>
<g id="clust89" class="cluster">
<title>cluster_ShoppingCartModule_providers</title>
<polygon fill="none" stroke="#000000" points="5203,-78 5203,-130 5461,-130 5461,-78 5203,-78"/>
</g>
<!-- AppComponent -->
<g id="node1" class="node">
<title>AppComponent</title>
<polygon fill="#ffffb3" stroke="#000000" points="740.9399,-198 635.0601,-198 635.0601,-162 740.9399,-162 740.9399,-198"/>
<text text-anchor="middle" x="688" y="-175.8" font-family="Times,serif" font-size="14.00" fill="#000000">AppComponent</text>
</g>
<!-- AppModule -->
<g id="node6" class="node">
<title>AppModule</title>
<polygon fill="#8dd3c7" stroke="#000000" points="729.6571,-263 726.6571,-267 705.6571,-267 702.6571,-263 646.3429,-263 646.3429,-227 729.6571,-227 729.6571,-263"/>
<text text-anchor="middle" x="688" y="-240.8" font-family="Times,serif" font-size="14.00" fill="#000000">AppModule</text>
</g>
<!-- AppComponent&#45;&gt;AppModule -->
<g id="edge1" class="edge">
<title>AppComponent&#45;&gt;AppModule</title>
<path fill="none" stroke="#000000" d="M688,-198.1061C688,-198.1061 688,-216.991 688,-216.991"/>
<polygon fill="#000000" stroke="#000000" points="684.5001,-216.9909 688,-226.991 691.5001,-216.991 684.5001,-216.9909"/>
</g>
<!-- CartComponent -->
<g id="node2" class="node">
<title>CartComponent</title>
<polygon fill="#ffffb3" stroke="#000000" points="1346.9357,-198 1241.0643,-198 1241.0643,-162 1346.9357,-162 1346.9357,-198"/>
<text text-anchor="middle" x="1294" y="-175.8" font-family="Times,serif" font-size="14.00" fill="#000000">CartComponent</text>
</g>
<!-- CartComponent&#45;&gt;AppModule -->
<g id="edge2" class="edge">
<title>CartComponent&#45;&gt;AppModule</title>
<path fill="none" stroke="#000000" d="M1294,-198.0109C1294,-220.4852 1294,-256 1294,-256 1294,-256 740.1316,-256 740.1316,-256"/>
<polygon fill="#000000" stroke="#000000" points="740.1316,-252.5001 730.1316,-256 740.1316,-259.5001 740.1316,-252.5001"/>
</g>
<!-- CartProductItemComponent -->
<g id="node3" class="node">
<title>CartProductItemComponent</title>
<polygon fill="#ffffb3" stroke="#000000" points="1223.14,-198 1048.86,-198 1048.86,-162 1223.14,-162 1223.14,-198"/>
<text text-anchor="middle" x="1136" y="-175.8" font-family="Times,serif" font-size="14.00" fill="#000000">CartProductItemComponent</text>
</g>
<!-- CartProductItemComponent&#45;&gt;AppModule -->
<g id="edge3" class="edge">
<title>CartProductItemComponent&#45;&gt;AppModule</title>
<path fill="none" stroke="#000000" d="M1136,-198.1289C1136,-218.5724 1136,-249 1136,-249 1136,-249 739.7445,-249 739.7445,-249"/>
<polygon fill="#000000" stroke="#000000" points="739.7445,-245.5001 729.7445,-249 739.7444,-252.5001 739.7445,-245.5001"/>
</g>
<!-- MenuComponent -->
<g id="node4" class="node">
<title>MenuComponent</title>
<polygon fill="#ffffb3" stroke="#000000" points="1030.9916,-198 917.0084,-198 917.0084,-162 1030.9916,-162 1030.9916,-198"/>
<text text-anchor="middle" x="974" y="-175.8" font-family="Times,serif" font-size="14.00" fill="#000000">MenuComponent</text>
</g>
<!-- MenuComponent&#45;&gt;AppModule -->
<g id="edge4" class="edge">
<title>MenuComponent&#45;&gt;AppModule</title>
<path fill="none" stroke="#000000" d="M974,-198.2667C974,-216.5552 974,-242 974,-242 974,-242 739.8931,-242 739.8931,-242"/>
<polygon fill="#000000" stroke="#000000" points="739.8932,-238.5001 729.8931,-242 739.8931,-245.5001 739.8932,-238.5001"/>
</g>
<!-- MenuLinkComponent -->
<g id="node5" class="node">
<title>MenuLinkComponent</title>
<polygon fill="#ffffb3" stroke="#000000" points="899.4355,-198 758.5645,-198 758.5645,-162 899.4355,-162 899.4355,-198"/>
<text text-anchor="middle" x="829" y="-175.8" font-family="Times,serif" font-size="14.00" fill="#000000">MenuLinkComponent</text>
</g>
<!-- MenuLinkComponent&#45;&gt;AppModule -->
<g id="edge5" class="edge">
<title>MenuLinkComponent&#45;&gt;AppModule</title>
<path fill="none" stroke="#000000" d="M829,-198.0091C829,-214.0494 829,-235 829,-235 829,-235 739.9229,-235 739.9229,-235"/>
<polygon fill="#000000" stroke="#000000" points="739.9229,-231.5001 729.9229,-235 739.9229,-238.5001 739.9229,-231.5001"/>
</g>
<!-- AppComponent  -->
<g id="node9" class="node">
<title>AppComponent </title>
<polygon fill="#80b1d3" stroke="#000000" points="742.439,-328 633.561,-328 633.561,-292 742.439,-292 742.439,-328"/>
<text text-anchor="middle" x="688" y="-305.8" font-family="Times,serif" font-size="14.00" fill="#000000">AppComponent </text>
</g>
<!-- AppModule&#45;&gt;AppComponent  -->
<g id="edge8" class="edge">
<title>AppModule&#45;&gt;AppComponent </title>
<path fill="none" stroke="#000000" stroke-dasharray="1,5" d="M688,-263.1061C688,-263.1061 688,-281.991 688,-281.991"/>
<polygon fill="#000000" stroke="#000000" points="684.5001,-281.9909 688,-291.991 691.5001,-281.991 684.5001,-281.9909"/>
</g>
<!-- AppRoutingModule -->
<g id="node7" class="node">
<title>AppRoutingModule</title>
<polygon fill="#8dd3c7" stroke="#000000" points="611.2744,-198 608.2744,-202 587.2744,-202 584.2744,-198 482.7256,-198 482.7256,-162 611.2744,-162 611.2744,-198"/>
<text text-anchor="middle" x="547" y="-175.8" font-family="Times,serif" font-size="14.00" fill="#000000">AppRoutingModule</text>
</g>
<!-- AppRoutingModule&#45;&gt;AppModule -->
<g id="edge6" class="edge">
<title>AppRoutingModule&#45;&gt;AppModule</title>
<path fill="none" stroke="#000000" d="M547,-198.0091C547,-214.0494 547,-235 547,-235 547,-235 636.0771,-235 636.0771,-235"/>
<polygon fill="#000000" stroke="#000000" points="636.0771,-238.5001 646.0771,-235 636.0771,-231.5001 636.0771,-238.5001"/>
</g>
<!-- CoreModule -->
<g id="node8" class="node">
<title>CoreModule</title>
<polygon fill="#8dd3c7" stroke="#000000" points="464.2619,-198 461.2619,-202 440.2619,-202 437.2619,-198 377.7381,-198 377.7381,-162 464.2619,-162 464.2619,-198"/>
<text text-anchor="middle" x="421" y="-175.8" font-family="Times,serif" font-size="14.00" fill="#000000">CoreModule</text>
</g>
<!-- CoreModule&#45;&gt;AppModule -->
<g id="edge7" class="edge">
<title>CoreModule&#45;&gt;AppModule</title>
<path fill="none" stroke="#000000" d="M421,-198.2667C421,-216.5552 421,-242 421,-242 421,-242 636.2813,-242 636.2813,-242"/>
<polygon fill="#000000" stroke="#000000" points="636.2813,-245.5001 646.2813,-242 636.2812,-238.5001 636.2813,-245.5001"/>
</g>
<!-- AuthInterceptor -->
<g id="node10" class="node">
<title>AuthInterceptor</title>
<ellipse fill="#fdb462" stroke="#000000" cx="281" cy="-180" rx="72.9121" ry="18"/>
<text text-anchor="middle" x="281" y="-175.8" font-family="Times,serif" font-size="14.00" fill="#000000">AuthInterceptor</text>
</g>
<!-- AuthInterceptor&#45;&gt;AppModule -->
<g id="edge9" class="edge">
<title>AuthInterceptor&#45;&gt;AppModule</title>
<path fill="none" stroke="#000000" d="M281,-198.1289C281,-218.5724 281,-249 281,-249 281,-249 635.9768,-249 635.9768,-249"/>
<polygon fill="#000000" stroke="#000000" points="635.9768,-252.5001 645.9768,-249 635.9768,-245.5001 635.9768,-252.5001"/>
</g>
<!-- SessionInterceptor -->
<g id="node11" class="node">
<title>SessionInterceptor</title>
<ellipse fill="#fdb462" stroke="#000000" cx="107" cy="-180" rx="82.8013" ry="18"/>
<text text-anchor="middle" x="107" y="-175.8" font-family="Times,serif" font-size="14.00" fill="#000000">SessionInterceptor</text>
</g>
<!-- SessionInterceptor&#45;&gt;AppModule -->
<g id="edge10" class="edge">
<title>SessionInterceptor&#45;&gt;AppModule</title>
<path fill="none" stroke="#000000" d="M107,-198.0109C107,-220.4852 107,-256 107,-256 107,-256 636.2159,-256 636.2159,-256"/>
<polygon fill="#000000" stroke="#000000" points="636.2159,-259.5001 646.2159,-256 636.2159,-252.5001 636.2159,-259.5001"/>
</g>
<!-- AuthComponent -->
<g id="node12" class="node">
<title>AuthComponent</title>
<polygon fill="#ffffb3" stroke="#000000" points="1496.8301,-122 1387.1699,-122 1387.1699,-86 1496.8301,-86 1496.8301,-122"/>
<text text-anchor="middle" x="1442" y="-99.8" font-family="Times,serif" font-size="14.00" fill="#000000">AuthComponent</text>
</g>
<!-- AuthModule -->
<g id="node15" class="node">
<title>AuthModule</title>
<polygon fill="#8dd3c7" stroke="#000000" points="1757.5482,-198 1754.5482,-202 1733.5482,-202 1730.5482,-198 1670.4518,-198 1670.4518,-162 1757.5482,-162 1757.5482,-198"/>
<text text-anchor="middle" x="1714" y="-175.8" font-family="Times,serif" font-size="14.00" fill="#000000">AuthModule</text>
</g>
<!-- AuthComponent&#45;&gt;AuthModule -->
<g id="edge11" class="edge">
<title>AuthComponent&#45;&gt;AuthModule</title>
<path fill="none" stroke="#000000" d="M1442,-122.1985C1442,-146.3563 1442,-186 1442,-186 1442,-186 1660.2985,-186 1660.2985,-186"/>
<polygon fill="#000000" stroke="#000000" points="1660.2985,-189.5001 1670.2985,-186 1660.2985,-182.5001 1660.2985,-189.5001"/>
</g>
<!-- LoginComponent -->
<g id="node13" class="node">
<title>LoginComponent</title>
<polygon fill="#ffffb3" stroke="#000000" points="1771.2758,-122 1656.7242,-122 1656.7242,-86 1771.2758,-86 1771.2758,-122"/>
<text text-anchor="middle" x="1714" y="-99.8" font-family="Times,serif" font-size="14.00" fill="#000000">LoginComponent</text>
</g>
<!-- LoginComponent&#45;&gt;AuthModule -->
<g id="edge12" class="edge">
<title>LoginComponent&#45;&gt;AuthModule</title>
<path fill="none" stroke="#000000" d="M1714,-122.0109C1714,-122.0109 1714,-151.855 1714,-151.855"/>
<polygon fill="#000000" stroke="#000000" points="1710.5001,-151.8549 1714,-161.855 1717.5001,-151.855 1710.5001,-151.8549"/>
</g>
<!-- SignUpComponent -->
<g id="node14" class="node">
<title>SignUpComponent</title>
<polygon fill="#ffffb3" stroke="#000000" points="1639.1123,-122 1514.8877,-122 1514.8877,-86 1639.1123,-86 1639.1123,-122"/>
<text text-anchor="middle" x="1577" y="-99.8" font-family="Times,serif" font-size="14.00" fill="#000000">SignUpComponent</text>
</g>
<!-- SignUpComponent&#45;&gt;AuthModule -->
<g id="edge13" class="edge">
<title>SignUpComponent&#45;&gt;AuthModule</title>
<path fill="none" stroke="#000000" d="M1577,-122.0267C1577,-142.7672 1577,-174 1577,-174 1577,-174 1660.2757,-174 1660.2757,-174"/>
<polygon fill="#000000" stroke="#000000" points="1660.2757,-177.5001 1670.2757,-174 1660.2756,-170.5001 1660.2757,-177.5001"/>
</g>
<!-- AuthRoutingModule -->
<g id="node16" class="node">
<title>AuthRoutingModule</title>
<polygon fill="#8dd3c7" stroke="#000000" points="1927.1652,-122 1924.1652,-126 1903.1652,-126 1900.1652,-122 1794.8348,-122 1794.8348,-86 1927.1652,-86 1927.1652,-122"/>
<text text-anchor="middle" x="1861" y="-99.8" font-family="Times,serif" font-size="14.00" fill="#000000">AuthRoutingModule</text>
</g>
<!-- AuthRoutingModule&#45;&gt;AuthModule -->
<g id="edge14" class="edge">
<title>AuthRoutingModule&#45;&gt;AuthModule</title>
<path fill="none" stroke="#000000" d="M1861,-122.0109C1861,-144.4852 1861,-180 1861,-180 1861,-180 1767.7068,-180 1767.7068,-180"/>
<polygon fill="#000000" stroke="#000000" points="1767.7069,-176.5001 1757.7068,-180 1767.7068,-183.5001 1767.7069,-176.5001"/>
</g>
<!-- SharedModule -->
<g id="node17" class="node">
<title>SharedModule</title>
<polygon fill="#8dd3c7" stroke="#000000" points="2044.4231,-122 2041.4231,-126 2020.4231,-126 2017.4231,-122 1945.5769,-122 1945.5769,-86 2044.4231,-86 2044.4231,-122"/>
<text text-anchor="middle" x="1995" y="-99.8" font-family="Times,serif" font-size="14.00" fill="#000000">SharedModule</text>
</g>
<!-- SharedModule&#45;&gt;AuthModule -->
<g id="edge15" class="edge">
<title>SharedModule&#45;&gt;AuthModule</title>
<path fill="none" stroke="#000000" d="M1995,-122.0263C1995,-146.9773 1995,-189 1995,-189 1995,-189 1767.5979,-189 1767.5979,-189"/>
<polygon fill="#000000" stroke="#000000" points="1767.598,-185.5001 1757.5979,-189 1767.5979,-192.5001 1767.598,-185.5001"/>
</g>
<!-- HomeModule -->
<g id="node22" class="node">
<title>HomeModule</title>
<polygon fill="#8dd3c7" stroke="#000000" points="4778.7619,-198 4775.7619,-202 4754.7619,-202 4751.7619,-198 4685.2381,-198 4685.2381,-162 4778.7619,-162 4778.7619,-198"/>
<text text-anchor="middle" x="4732" y="-175.8" font-family="Times,serif" font-size="14.00" fill="#000000">HomeModule</text>
</g>
<!-- SharedModule&#45;&gt;HomeModule -->
<g id="edge21" class="edge">
<title>SharedModule&#45;&gt;HomeModule</title>
<path fill="none" stroke="#000000" d="M2044.4447,-89C2383.3129,-89 4349.3246,-89 4349.3246,-89 4349.3246,-89 4349.3246,-186 4349.3246,-186 4349.3246,-186 4675.0765,-186 4675.0765,-186"/>
<polygon fill="#000000" stroke="#000000" points="4675.0765,-189.5001 4685.0765,-186 4675.0765,-182.5001 4675.0765,-189.5001"/>
</g>
<!-- CartItemComponent  -->
<g id="node35" class="node">
<title>CartItemComponent </title>
<polygon fill="#fb8072" stroke="#000000" points="2218.0918,-198 2083.9082,-198 2083.9082,-162 2218.0918,-162 2218.0918,-198"/>
<text text-anchor="middle" x="2151" y="-175.8" font-family="Times,serif" font-size="14.00" fill="#000000">CartItemComponent </text>
</g>
<!-- SharedModule&#45;&gt;CartItemComponent  -->
<g id="edge32" class="edge">
<title>SharedModule&#45;&gt;CartItemComponent </title>
<path fill="none" stroke="#000000" stroke-dasharray="5,2" d="M2019.6056,-122.308C2019.6056,-142.1455 2019.6056,-171 2019.6056,-171 2019.6056,-171 2073.7631,-171 2073.7631,-171"/>
<polygon fill="#000000" stroke="#000000" points="2073.7632,-174.5001 2083.7631,-171 2073.7631,-167.5001 2073.7632,-174.5001"/>
</g>
<!-- ColorPickerComponent  -->
<g id="node36" class="node">
<title>ColorPickerComponent </title>
<polygon fill="#fb8072" stroke="#000000" points="3206.484,-198 3053.516,-198 3053.516,-162 3206.484,-162 3206.484,-198"/>
<text text-anchor="middle" x="3130" y="-175.8" font-family="Times,serif" font-size="14.00" fill="#000000">ColorPickerComponent </text>
</g>
<!-- SharedModule&#45;&gt;ColorPickerComponent  -->
<g id="edge33" class="edge">
<title>SharedModule&#45;&gt;ColorPickerComponent </title>
<path fill="none" stroke="#000000" stroke-dasharray="5,2" d="M2044.4994,-108C2262.9542,-108 3130,-108 3130,-108 3130,-108 3130,-151.8314 3130,-151.8314"/>
<polygon fill="#000000" stroke="#000000" points="3126.5001,-151.8313 3130,-161.8314 3133.5001,-151.8314 3126.5001,-151.8313"/>
</g>
<!-- DressPreviewComponent  -->
<g id="node37" class="node">
<title>DressPreviewComponent </title>
<polygon fill="#fb8072" stroke="#000000" points="3035.0736,-198 2872.9264,-198 2872.9264,-162 3035.0736,-162 3035.0736,-198"/>
<text text-anchor="middle" x="2954" y="-175.8" font-family="Times,serif" font-size="14.00" fill="#000000">DressPreviewComponent </text>
</g>
<!-- SharedModule&#45;&gt;DressPreviewComponent  -->
<g id="edge34" class="edge">
<title>SharedModule&#45;&gt;DressPreviewComponent </title>
<path fill="none" stroke="#000000" stroke-dasharray="5,2" d="M2044.5406,-110C2240.917,-110 2954,-110 2954,-110 2954,-110 2954,-151.9733 2954,-151.9733"/>
<polygon fill="#000000" stroke="#000000" points="2950.5001,-151.9732 2954,-161.9733 2957.5001,-151.9733 2950.5001,-151.9732"/>
</g>
<!-- DressTypePickerComponent  -->
<g id="node38" class="node">
<title>DressTypePickerComponent </title>
<polygon fill="#fb8072" stroke="#000000" points="2854.7338,-198 2673.2662,-198 2673.2662,-162 2854.7338,-162 2854.7338,-198"/>
<text text-anchor="middle" x="2764" y="-175.8" font-family="Times,serif" font-size="14.00" fill="#000000">DressTypePickerComponent </text>
</g>
<!-- SharedModule&#45;&gt;DressTypePickerComponent  -->
<g id="edge35" class="edge">
<title>SharedModule&#45;&gt;DressTypePickerComponent </title>
<path fill="none" stroke="#000000" stroke-dasharray="5,2" d="M2044.2742,-113C2214.0006,-113 2764,-113 2764,-113 2764,-113 2764,-151.692 2764,-151.692"/>
<polygon fill="#000000" stroke="#000000" points="2760.5001,-151.6919 2764,-161.692 2767.5001,-151.692 2760.5001,-151.6919"/>
</g>
<!-- ModalComponent  -->
<g id="node39" class="node">
<title>ModalComponent </title>
<polygon fill="#fb8072" stroke="#000000" points="2655.8828,-198 2534.1172,-198 2534.1172,-162 2655.8828,-162 2655.8828,-198"/>
<text text-anchor="middle" x="2595" y="-175.8" font-family="Times,serif" font-size="14.00" fill="#000000">ModalComponent </text>
</g>
<!-- SharedModule&#45;&gt;ModalComponent  -->
<g id="edge36" class="edge">
<title>SharedModule&#45;&gt;ModalComponent </title>
<path fill="none" stroke="#000000" stroke-dasharray="5,2" d="M2044.3555,-115C2187.8809,-115 2595,-115 2595,-115 2595,-115 2595,-151.8939 2595,-151.8939"/>
<polygon fill="#000000" stroke="#000000" points="2591.5001,-151.8938 2595,-161.8939 2598.5001,-151.8939 2591.5001,-151.8938"/>
</g>
<!-- SuccessComponent  -->
<g id="node40" class="node">
<title>SuccessComponent </title>
<polygon fill="#fb8072" stroke="#000000" points="2516.6481,-198 2387.3519,-198 2387.3519,-162 2516.6481,-162 2516.6481,-198"/>
<text text-anchor="middle" x="2452" y="-175.8" font-family="Times,serif" font-size="14.00" fill="#000000">SuccessComponent </text>
</g>
<!-- SharedModule&#45;&gt;SuccessComponent  -->
<g id="edge37" class="edge">
<title>SharedModule&#45;&gt;SuccessComponent </title>
<path fill="none" stroke="#000000" stroke-dasharray="5,2" d="M2044.3412,-118C2162.5114,-118 2452,-118 2452,-118 2452,-118 2452,-151.7333 2452,-151.7333"/>
<polygon fill="#000000" stroke="#000000" points="2448.5001,-151.7333 2452,-161.7333 2455.5001,-151.7333 2448.5001,-151.7333"/>
</g>
<!-- WarningComponent  -->
<g id="node41" class="node">
<title>WarningComponent </title>
<polygon fill="#fb8072" stroke="#000000" points="2369.8129,-198 2236.1871,-198 2236.1871,-162 2369.8129,-162 2369.8129,-198"/>
<text text-anchor="middle" x="2303" y="-175.8" font-family="Times,serif" font-size="14.00" fill="#000000">WarningComponent </text>
</g>
<!-- SharedModule&#45;&gt;WarningComponent  -->
<g id="edge38" class="edge">
<title>SharedModule&#45;&gt;WarningComponent </title>
<path fill="none" stroke="#000000" stroke-dasharray="5,2" d="M2044.4855,-120C2131.55,-120 2303,-120 2303,-120 2303,-120 2303,-151.998 2303,-151.998"/>
<polygon fill="#000000" stroke="#000000" points="2299.5001,-151.998 2303,-161.998 2306.5001,-151.9981 2299.5001,-151.998"/>
</g>
<!-- ShoppingCartModule -->
<g id="node46" class="node">
<title>ShoppingCartModule</title>
<polygon fill="#8dd3c7" stroke="#000000" points="5825.8258,-198 5822.8258,-202 5801.8258,-202 5798.8258,-198 5688.1742,-198 5688.1742,-162 5825.8258,-162 5825.8258,-198"/>
<text text-anchor="middle" x="5757" y="-175.8" font-family="Times,serif" font-size="14.00" fill="#000000">ShoppingCartModule</text>
</g>
<!-- SharedModule&#45;&gt;ShoppingCartModule -->
<g id="edge43" class="edge">
<title>SharedModule&#45;&gt;ShoppingCartModule</title>
<path fill="none" stroke="#000000" d="M1970.3945,-122.1097C1970.3945,-131.897 1970.3945,-142 1970.3945,-142 1970.3945,-142 5734.1124,-142 5734.1124,-142 5734.1124,-142 5734.1124,-151.8903 5734.1124,-151.8903"/>
<polygon fill="#000000" stroke="#000000" points="5730.6125,-151.8903 5734.1124,-161.8903 5737.6125,-151.8904 5730.6125,-151.8903"/>
</g>
<!-- HttpCommunicationsService -->
<g id="node18" class="node">
<title>HttpCommunicationsService</title>
<ellipse fill="#fdb462" stroke="#000000" cx="421" cy="-104" rx="123.292" ry="18"/>
<text text-anchor="middle" x="421" y="-99.8" font-family="Times,serif" font-size="14.00" fill="#000000">HttpCommunicationsService</text>
</g>
<!-- HttpCommunicationsService&#45;&gt;CoreModule -->
<g id="edge16" class="edge">
<title>HttpCommunicationsService&#45;&gt;CoreModule</title>
<path fill="none" stroke="#000000" d="M421,-122.0109C421,-122.0109 421,-151.855 421,-151.855"/>
<polygon fill="#000000" stroke="#000000" points="417.5001,-151.8549 421,-161.855 424.5001,-151.855 417.5001,-151.8549"/>
</g>
<!-- ClotheComponent -->
<g id="node19" class="node">
<title>ClotheComponent</title>
<polygon fill="#ffffb3" stroke="#000000" points="4867.1653,-122 4748.8347,-122 4748.8347,-86 4867.1653,-86 4867.1653,-122"/>
<text text-anchor="middle" x="4808" y="-99.8" font-family="Times,serif" font-size="14.00" fill="#000000">ClotheComponent</text>
</g>
<!-- ClotheComponent&#45;&gt;HomeModule -->
<g id="edge17" class="edge">
<title>ClotheComponent&#45;&gt;HomeModule</title>
<path fill="none" stroke="#000000" d="M4763.7742,-122.0109C4763.7742,-122.0109 4763.7742,-151.855 4763.7742,-151.855"/>
<polygon fill="#000000" stroke="#000000" points="4760.2743,-151.8549 4763.7742,-161.855 4767.2743,-151.855 4760.2743,-151.8549"/>
</g>
<!-- ClotheDetailComponent -->
<g id="node20" class="node">
<title>ClotheDetailComponent</title>
<polygon fill="#ffffb3" stroke="#000000" points="5171.3725,-122 5018.6275,-122 5018.6275,-86 5171.3725,-86 5171.3725,-122"/>
<text text-anchor="middle" x="5095" y="-99.8" font-family="Times,serif" font-size="14.00" fill="#000000">ClotheDetailComponent</text>
</g>
<!-- ClotheDetailComponent&#45;&gt;HomeModule -->
<g id="edge18" class="edge">
<title>ClotheDetailComponent&#45;&gt;HomeModule</title>
<path fill="none" stroke="#000000" d="M5095,-122.0449C5095,-143.6623 5095,-177 5095,-177 5095,-177 4789.0838,-177 4789.0838,-177"/>
<polygon fill="#000000" stroke="#000000" points="4789.0838,-173.5001 4779.0838,-177 4789.0837,-180.5001 4789.0838,-173.5001"/>
</g>
<!-- HomeComponent -->
<g id="node21" class="node">
<title>HomeComponent</title>
<polygon fill="#ffffb3" stroke="#000000" points="5000.5451,-122 4885.4549,-122 4885.4549,-86 5000.5451,-86 5000.5451,-122"/>
<text text-anchor="middle" x="4943" y="-99.8" font-family="Times,serif" font-size="14.00" fill="#000000">HomeComponent</text>
</g>
<!-- HomeComponent&#45;&gt;HomeModule -->
<g id="edge19" class="edge">
<title>HomeComponent&#45;&gt;HomeModule</title>
<path fill="none" stroke="#000000" d="M4943,-122.0348C4943,-141.5762 4943,-170 4943,-170 4943,-170 4788.8277,-170 4788.8277,-170"/>
<polygon fill="#000000" stroke="#000000" points="4788.8278,-166.5001 4778.8277,-170 4788.8277,-173.5001 4788.8278,-166.5001"/>
</g>
<!-- HomeRoutingModule -->
<g id="node23" class="node">
<title>HomeRoutingModule</title>
<polygon fill="#8dd3c7" stroke="#000000" points="4725.3795,-122 4722.3795,-126 4701.3795,-126 4698.3795,-122 4586.6205,-122 4586.6205,-86 4725.3795,-86 4725.3795,-122"/>
<text text-anchor="middle" x="4656" y="-99.8" font-family="Times,serif" font-size="14.00" fill="#000000">HomeRoutingModule</text>
</g>
<!-- HomeRoutingModule&#45;&gt;HomeModule -->
<g id="edge20" class="edge">
<title>HomeRoutingModule&#45;&gt;HomeModule</title>
<path fill="none" stroke="#000000" d="M4705.2795,-122.0109C4705.2795,-122.0109 4705.2795,-151.855 4705.2795,-151.855"/>
<polygon fill="#000000" stroke="#000000" points="4701.7795,-151.8549 4705.2795,-161.855 4708.7795,-151.855 4701.7795,-151.8549"/>
</g>
<!-- ClothesFacadeService -->
<g id="node24" class="node">
<title>ClothesFacadeService</title>
<ellipse fill="#fdb462" stroke="#000000" cx="4466" cy="-104" rx="96.6849" ry="18"/>
<text text-anchor="middle" x="4466" y="-99.8" font-family="Times,serif" font-size="14.00" fill="#000000">ClothesFacadeService</text>
</g>
<!-- ClothesFacadeService&#45;&gt;HomeModule -->
<g id="edge22" class="edge">
<title>ClothesFacadeService&#45;&gt;HomeModule</title>
<path fill="none" stroke="#000000" d="M4466,-122.0267C4466,-142.7672 4466,-174 4466,-174 4466,-174 4675.0568,-174 4675.0568,-174"/>
<polygon fill="#000000" stroke="#000000" points="4675.0569,-177.5001 4685.0568,-174 4675.0568,-170.5001 4675.0569,-177.5001"/>
</g>
<!-- SessionExpiredComponent -->
<g id="node25" class="node">
<title>SessionExpiredComponent</title>
<polygon fill="#ffffb3" stroke="#000000" points="6738.4283,-122 6569.5717,-122 6569.5717,-86 6738.4283,-86 6738.4283,-122"/>
<text text-anchor="middle" x="6654" y="-99.8" font-family="Times,serif" font-size="14.00" fill="#000000">SessionExpiredComponent</text>
</g>
<!-- SessionExpiredModule -->
<g id="node26" class="node">
<title>SessionExpiredModule</title>
<polygon fill="#8dd3c7" stroke="#000000" points="6625.1456,-198 6622.1456,-202 6601.1456,-202 6598.1456,-198 6478.8544,-198 6478.8544,-162 6625.1456,-162 6625.1456,-198"/>
<text text-anchor="middle" x="6552" y="-175.8" font-family="Times,serif" font-size="14.00" fill="#000000">SessionExpiredModule</text>
</g>
<!-- SessionExpiredComponent&#45;&gt;SessionExpiredModule -->
<g id="edge23" class="edge">
<title>SessionExpiredComponent&#45;&gt;SessionExpiredModule</title>
<path fill="none" stroke="#000000" d="M6597.5544,-122.0109C6597.5544,-122.0109 6597.5544,-151.855 6597.5544,-151.855"/>
<polygon fill="#000000" stroke="#000000" points="6594.0544,-151.8549 6597.5544,-161.855 6601.0544,-151.855 6594.0544,-151.8549"/>
</g>
<!-- SessionExpiredRoutingModule -->
<g id="node27" class="node">
<title>SessionExpiredRoutingModule</title>
<polygon fill="#8dd3c7" stroke="#000000" points="6545.7631,-122 6542.7631,-126 6521.7631,-126 6518.7631,-122 6354.2369,-122 6354.2369,-86 6545.7631,-86 6545.7631,-122"/>
<text text-anchor="middle" x="6450" y="-99.8" font-family="Times,serif" font-size="14.00" fill="#000000">SessionExpiredRoutingModule</text>
</g>
<!-- SessionExpiredRoutingModule&#45;&gt;SessionExpiredModule -->
<g id="edge24" class="edge">
<title>SessionExpiredRoutingModule&#45;&gt;SessionExpiredModule</title>
<path fill="none" stroke="#000000" d="M6512.2795,-122.0109C6512.2795,-122.0109 6512.2795,-151.855 6512.2795,-151.855"/>
<polygon fill="#000000" stroke="#000000" points="6508.7795,-151.8549 6512.2795,-161.855 6515.7795,-151.855 6508.7795,-151.8549"/>
</g>
<!-- CartItemComponent -->
<g id="node28" class="node">
<title>CartItemComponent</title>
<polygon fill="#ffffb3" stroke="#000000" points="3361.5912,-198 3230.4088,-198 3230.4088,-162 3361.5912,-162 3361.5912,-198"/>
<text text-anchor="middle" x="3296" y="-175.8" font-family="Times,serif" font-size="14.00" fill="#000000">CartItemComponent</text>
</g>
<!-- CartItemComponent&#45;&gt;SharedModule -->
<g id="edge25" class="edge">
<title>CartItemComponent&#45;&gt;SharedModule</title>
<path fill="none" stroke="#000000" d="M3296,-161.7079C3296,-139.7943 3296,-106 3296,-106 3296,-106 2054.4121,-106 2054.4121,-106"/>
<polygon fill="#000000" stroke="#000000" points="2054.4121,-102.5001 2044.4121,-106 2054.412,-109.5001 2054.4121,-102.5001"/>
</g>
<!-- ColorPickerComponent -->
<g id="node29" class="node">
<title>ColorPickerComponent</title>
<polygon fill="#ffffb3" stroke="#000000" points="4329.4832,-198 4180.5168,-198 4180.5168,-162 4329.4832,-162 4329.4832,-198"/>
<text text-anchor="middle" x="4255" y="-175.8" font-family="Times,serif" font-size="14.00" fill="#000000">ColorPickerComponent</text>
</g>
<!-- ColorPickerComponent&#45;&gt;SharedModule -->
<g id="edge26" class="edge">
<title>ColorPickerComponent&#45;&gt;SharedModule</title>
<path fill="none" stroke="#000000" d="M4255,-161.9895C4255,-135.9835 4255,-91 4255,-91 4255,-91 2054.3051,-91 2054.3051,-91"/>
<polygon fill="#000000" stroke="#000000" points="2054.3051,-87.5001 2044.3051,-91 2054.3051,-94.5001 2054.3051,-87.5001"/>
</g>
<!-- DressPreviewComponent -->
<g id="node30" class="node">
<title>DressPreviewComponent</title>
<polygon fill="#ffffb3" stroke="#000000" points="4162.573,-198 4003.427,-198 4003.427,-162 4162.573,-162 4162.573,-198"/>
<text text-anchor="middle" x="4083" y="-175.8" font-family="Times,serif" font-size="14.00" fill="#000000">DressPreviewComponent</text>
</g>
<!-- DressPreviewComponent&#45;&gt;SharedModule -->
<g id="edge27" class="edge">
<title>DressPreviewComponent&#45;&gt;SharedModule</title>
<path fill="none" stroke="#000000" d="M4083,-161.7616C4083,-136.5171 4083,-94 4083,-94 4083,-94 2054.2996,-94 2054.2996,-94"/>
<polygon fill="#000000" stroke="#000000" points="2054.2997,-90.5001 2044.2996,-94 2054.2996,-97.5001 2054.2997,-90.5001"/>
</g>
<!-- DressTypePickerComponent -->
<g id="node31" class="node">
<title>DressTypePickerComponent</title>
<polygon fill="#ffffb3" stroke="#000000" points="3985.7338,-198 3808.2662,-198 3808.2662,-162 3985.7338,-162 3985.7338,-198"/>
<text text-anchor="middle" x="3897" y="-175.8" font-family="Times,serif" font-size="14.00" fill="#000000">DressTypePickerComponent</text>
</g>
<!-- DressTypePickerComponent&#45;&gt;SharedModule -->
<g id="edge28" class="edge">
<title>DressTypePickerComponent&#45;&gt;SharedModule</title>
<path fill="none" stroke="#000000" d="M3897,-161.7733C3897,-137.0682 3897,-96 3897,-96 3897,-96 2054.4107,-96 2054.4107,-96"/>
<polygon fill="#000000" stroke="#000000" points="2054.4107,-92.5001 2044.4107,-96 2054.4107,-99.5001 2054.4107,-92.5001"/>
</g>
<!-- ModalComponent -->
<g id="node32" class="node">
<title>ModalComponent</title>
<polygon fill="#ffffb3" stroke="#000000" points="3789.8823,-198 3672.1177,-198 3672.1177,-162 3789.8823,-162 3789.8823,-198"/>
<text text-anchor="middle" x="3731" y="-175.8" font-family="Times,serif" font-size="14.00" fill="#000000">ModalComponent</text>
</g>
<!-- ModalComponent&#45;&gt;SharedModule -->
<g id="edge29" class="edge">
<title>ModalComponent&#45;&gt;SharedModule</title>
<path fill="none" stroke="#000000" d="M3731,-161.8015C3731,-137.6437 3731,-98 3731,-98 3731,-98 2054.6198,-98 2054.6198,-98"/>
<polygon fill="#000000" stroke="#000000" points="2054.6199,-94.5001 2044.6198,-98 2054.6198,-101.5001 2054.6199,-94.5001"/>
</g>
<!-- SuccessComponent -->
<g id="node33" class="node">
<title>SuccessComponent</title>
<polygon fill="#ffffb3" stroke="#000000" points="3653.6485,-198 3528.3515,-198 3528.3515,-162 3653.6485,-162 3653.6485,-198"/>
<text text-anchor="middle" x="3591" y="-175.8" font-family="Times,serif" font-size="14.00" fill="#000000">SuccessComponent</text>
</g>
<!-- SuccessComponent&#45;&gt;SharedModule -->
<g id="edge30" class="edge">
<title>SuccessComponent&#45;&gt;SharedModule</title>
<path fill="none" stroke="#000000" d="M3591,-161.6772C3591,-138.3398 3591,-101 3591,-101 3591,-101 2054.5152,-101 2054.5152,-101"/>
<polygon fill="#000000" stroke="#000000" points="2054.5153,-97.5001 2044.5152,-101 2054.5152,-104.5001 2054.5153,-97.5001"/>
</g>
<!-- WarningComponent -->
<g id="node34" class="node">
<title>WarningComponent</title>
<polygon fill="#ffffb3" stroke="#000000" points="3510.3132,-198 3379.6868,-198 3379.6868,-162 3510.3132,-162 3510.3132,-198"/>
<text text-anchor="middle" x="3445" y="-175.8" font-family="Times,serif" font-size="14.00" fill="#000000">WarningComponent</text>
</g>
<!-- WarningComponent&#45;&gt;SharedModule -->
<g id="edge31" class="edge">
<title>WarningComponent&#45;&gt;SharedModule</title>
<path fill="none" stroke="#000000" d="M3445,-161.7521C3445,-138.9821 3445,-103 3445,-103 3445,-103 2054.4928,-103 2054.4928,-103"/>
<polygon fill="#000000" stroke="#000000" points="2054.4928,-99.5001 2044.4928,-103 2054.4928,-106.5001 2054.4928,-99.5001"/>
</g>
<!-- FirstStepComponent -->
<g id="node42" class="node">
<title>FirstStepComponent</title>
<polygon fill="#ffffb3" stroke="#000000" points="5980.8892,-122 5849.1108,-122 5849.1108,-86 5980.8892,-86 5980.8892,-122"/>
<text text-anchor="middle" x="5915" y="-99.8" font-family="Times,serif" font-size="14.00" fill="#000000">FirstStepComponent</text>
</g>
<!-- FirstStepComponent&#45;&gt;ShoppingCartModule -->
<g id="edge39" class="edge">
<title>FirstStepComponent&#45;&gt;ShoppingCartModule</title>
<path fill="none" stroke="#000000" d="M5915,-122.308C5915,-142.1455 5915,-171 5915,-171 5915,-171 5835.8415,-171 5835.8415,-171"/>
<polygon fill="#000000" stroke="#000000" points="5835.8415,-167.5001 5825.8415,-171 5835.8414,-174.5001 5835.8415,-167.5001"/>
</g>
<!-- SecondStepComponent -->
<g id="node43" class="node">
<title>SecondStepComponent</title>
<polygon fill="#ffffb3" stroke="#000000" points="5830.9326,-122 5683.0674,-122 5683.0674,-86 5830.9326,-86 5830.9326,-122"/>
<text text-anchor="middle" x="5757" y="-99.8" font-family="Times,serif" font-size="14.00" fill="#000000">SecondStepComponent</text>
</g>
<!-- SecondStepComponent&#45;&gt;ShoppingCartModule -->
<g id="edge40" class="edge">
<title>SecondStepComponent&#45;&gt;ShoppingCartModule</title>
<path fill="none" stroke="#000000" d="M5779.8876,-122.0109C5779.8876,-122.0109 5779.8876,-151.855 5779.8876,-151.855"/>
<polygon fill="#000000" stroke="#000000" points="5776.3877,-151.8549 5779.8876,-161.855 5783.3877,-151.855 5776.3877,-151.8549"/>
</g>
<!-- ShoppingCartComponent -->
<g id="node44" class="node">
<title>ShoppingCartComponent</title>
<polygon fill="#ffffb3" stroke="#000000" points="6313.608,-122 6154.392,-122 6154.392,-86 6313.608,-86 6313.608,-122"/>
<text text-anchor="middle" x="6234" y="-99.8" font-family="Times,serif" font-size="14.00" fill="#000000">ShoppingCartComponent</text>
</g>
<!-- ShoppingCartComponent&#45;&gt;ShoppingCartModule -->
<g id="edge41" class="edge">
<title>ShoppingCartComponent&#45;&gt;ShoppingCartModule</title>
<path fill="none" stroke="#000000" d="M6234,-122.0263C6234,-146.9773 6234,-189 6234,-189 6234,-189 5835.8505,-189 5835.8505,-189"/>
<polygon fill="#000000" stroke="#000000" points="5835.8505,-185.5001 5825.8505,-189 5835.8504,-192.5001 5835.8505,-185.5001"/>
</g>
<!-- ThirdStepComponent -->
<g id="node45" class="node">
<title>ThirdStepComponent</title>
<polygon fill="#ffffb3" stroke="#000000" points="6136.8244,-122 5999.1756,-122 5999.1756,-86 6136.8244,-86 6136.8244,-122"/>
<text text-anchor="middle" x="6068" y="-99.8" font-family="Times,serif" font-size="14.00" fill="#000000">ThirdStepComponent</text>
</g>
<!-- ThirdStepComponent&#45;&gt;ShoppingCartModule -->
<g id="edge42" class="edge">
<title>ThirdStepComponent&#45;&gt;ShoppingCartModule</title>
<path fill="none" stroke="#000000" d="M6068,-122.0109C6068,-144.4852 6068,-180 6068,-180 6068,-180 5836.021,-180 5836.021,-180"/>
<polygon fill="#000000" stroke="#000000" points="5836.021,-176.5001 5826.021,-180 5836.0209,-183.5001 5836.021,-176.5001"/>
</g>
<!-- ShoppingCartRoutingModule -->
<g id="node47" class="node">
<title>ShoppingCartRoutingModule</title>
<polygon fill="#8dd3c7" stroke="#000000" points="5659.4437,-122 5656.4437,-126 5635.4437,-126 5632.4437,-122 5476.5563,-122 5476.5563,-86 5659.4437,-86 5659.4437,-122"/>
<text text-anchor="middle" x="5568" y="-99.8" font-family="Times,serif" font-size="14.00" fill="#000000">ShoppingCartRoutingModule</text>
</g>
<!-- ShoppingCartRoutingModule&#45;&gt;ShoppingCartModule -->
<g id="edge44" class="edge">
<title>ShoppingCartRoutingModule&#45;&gt;ShoppingCartModule</title>
<path fill="none" stroke="#000000" d="M5568,-122.1532C5568,-145.7566 5568,-184 5568,-184 5568,-184 5678.232,-184 5678.232,-184"/>
<polygon fill="#000000" stroke="#000000" points="5678.2321,-187.5001 5688.232,-184 5678.232,-180.5001 5678.2321,-187.5001"/>
</g>
<!-- ShoppingCartFacadeService -->
<g id="node48" class="node">
<title>ShoppingCartFacadeService</title>
<ellipse fill="#fdb462" stroke="#000000" cx="5332" cy="-104" rx="120.9674" ry="18"/>
<text text-anchor="middle" x="5332" y="-99.8" font-family="Times,serif" font-size="14.00" fill="#000000">ShoppingCartFacadeService</text>
</g>
<!-- ShoppingCartFacadeService&#45;&gt;ShoppingCartModule -->
<g id="edge45" class="edge">
<title>ShoppingCartFacadeService&#45;&gt;ShoppingCartModule</title>
<path fill="none" stroke="#000000" d="M5332,-122.0265C5332,-147.5093 5332,-191 5332,-191 5332,-191 5678.2441,-191 5678.2441,-191"/>
<polygon fill="#000000" stroke="#000000" points="5678.2441,-194.5001 5688.2441,-191 5678.244,-187.5001 5678.2441,-194.5001"/>
</g>
</g>
</svg>
